<?xml version="1.0" encoding="UTF-8"?>
<!--Generator: Apple Native CoreSVG 149-->
<!DOCTYPE svg
PUBLIC "-//W3C//DTD SVG 1.1//EN"
       "http://www.w3.org/Graphics/SVG/1.1/DTD/svg11.dtd">
<svg version="1.1" xmlns="http://www.w3.org/2000/svg" xmlns:xlink="http://www.w3.org/1999/xlink" width="3300" height="2200">
 <!--glyph: "uni100926.medium", point size: 100.000000, font version: "Version 16.0d18e1", template writer version: "8"-->
 <g id="Notes">
  <rect height="2200" id="artboard" style="fill:white;opacity:1" width="3300" x="0" y="0"/>
  <line id="" style="fill:none;stroke:black;opacity:1;stroke-width:0.5;" x1="263" x2="3036" y1="292" y2="292"/>
  <text style="stroke:none;fill:black;font-family:-apple-system,&quot;SF Pro Display&quot;,&quot;SF Pro Text&quot;,Helvetica,sans-serif;font-weight:bold;" transform="matrix(1 0 0 1 263 322)">Weight/Scale Variations</text>
  <text style="stroke:none;fill:black;font-family:-apple-system,&quot;SF Pro Display&quot;,&quot;SF Pro Text&quot;,Helvetica,sans-serif;text-anchor:middle;" transform="matrix(1 0 0 1 559.711 322)">Ultralight</text>
  <text style="stroke:none;fill:black;font-family:-apple-system,&quot;SF Pro Display&quot;,&quot;SF Pro Text&quot;,Helvetica,sans-serif;text-anchor:middle;" transform="matrix(1 0 0 1 856.422 322)">Thin</text>
  <text style="stroke:none;fill:black;font-family:-apple-system,&quot;SF Pro Display&quot;,&quot;SF Pro Text&quot;,Helvetica,sans-serif;text-anchor:middle;" transform="matrix(1 0 0 1 1153.13 322)">Light</text>
  <text style="stroke:none;fill:black;font-family:-apple-system,&quot;SF Pro Display&quot;,&quot;SF Pro Text&quot;,Helvetica,sans-serif;text-anchor:middle;" transform="matrix(1 0 0 1 1449.84 322)">Regular</text>
  <text style="stroke:none;fill:black;font-family:-apple-system,&quot;SF Pro Display&quot;,&quot;SF Pro Text&quot;,Helvetica,sans-serif;text-anchor:middle;" transform="matrix(1 0 0 1 1746.56 322)">Medium</text>
  <text style="stroke:none;fill:black;font-family:-apple-system,&quot;SF Pro Display&quot;,&quot;SF Pro Text&quot;,Helvetica,sans-serif;text-anchor:middle;" transform="matrix(1 0 0 1 2043.27 322)">Semibold</text>
  <text style="stroke:none;fill:black;font-family:-apple-system,&quot;SF Pro Display&quot;,&quot;SF Pro Text&quot;,Helvetica,sans-serif;text-anchor:middle;" transform="matrix(1 0 0 1 2339.98 322)">Bold</text>
  <text style="stroke:none;fill:black;font-family:-apple-system,&quot;SF Pro Display&quot;,&quot;SF Pro Text&quot;,Helvetica,sans-serif;text-anchor:middle;" transform="matrix(1 0 0 1 2636.69 322)">Heavy</text>
  <text style="stroke:none;fill:black;font-family:-apple-system,&quot;SF Pro Display&quot;,&quot;SF Pro Text&quot;,Helvetica,sans-serif;text-anchor:middle;" transform="matrix(1 0 0 1 2933.4 322)">Black</text>
  <line id="" style="fill:none;stroke:black;opacity:1;stroke-width:0.5;" x1="263" x2="3036" y1="1903" y2="1903"/>
  <g id="" transform="matrix(1 0 0 1 263 1933)">
   <path d="M9.24805 0.830078C13.5547 0.830078 17.1387-2.74414 17.1387-7.05078C17.1387-11.3574 13.5449-14.9316 9.23828-14.9316C4.94141-14.9316 1.36719-11.3574 1.36719-7.05078C1.36719-2.74414 4.95117 0.830078 9.24805 0.830078ZM9.24805-0.654297C5.70312-0.654297 2.87109-3.49609 2.87109-7.05078C2.87109-10.6055 5.69336-13.4473 9.23828-13.4473C12.793-13.4473 15.6348-10.6055 15.6445-7.05078C15.6543-3.49609 12.8027-0.654297 9.24805-0.654297ZM6.39648-6.31836L8.50586-6.31836L8.50586-4.19922C8.50586-3.75977 8.79883-3.45703 9.22852-3.45703C9.67773-3.45703 9.9707-3.75977 9.9707-4.19922L9.9707-6.31836L12.0996-6.31836C12.5391-6.31836 12.8418-6.61133 12.8418-7.04102C12.8418-7.48047 12.5391-7.7832 12.0996-7.7832L9.9707-7.7832L9.9707-9.89258C9.9707-10.3418 9.67773-10.6445 9.22852-10.6445C8.79883-10.6445 8.50586-10.3418 8.50586-9.89258L8.50586-7.7832L6.39648-7.7832C5.94727-7.7832 5.64453-7.48047 5.64453-7.04102C5.64453-6.61133 5.94727-6.31836 6.39648-6.31836Z"/>
  </g>
  <g id="" transform="matrix(1 0 0 1 281.506 1933)">
   <path d="M11.709 2.91016C17.1582 2.91016 21.6699-1.61133 21.6699-7.05078C21.6699-12.5 17.1484-17.0117 11.6992-17.0117C6.25977-17.0117 1.74805-12.5 1.74805-7.05078C1.74805-1.61133 6.26953 2.91016 11.709 2.91016ZM11.709 1.25C7.09961 1.25 3.41797-2.44141 3.41797-7.05078C3.41797-11.6602 7.08984-15.3516 11.6992-15.3516C16.3086-15.3516 20-11.6602 20.0098-7.05078C20.0195-2.44141 16.3184 1.25 11.709 1.25ZM7.98828-6.23047L10.8789-6.23047L10.8789-3.32031C10.8789-2.83203 11.2109-2.5 11.6895-2.5C12.1777-2.5 12.5195-2.83203 12.5195-3.32031L12.5195-6.23047L15.4297-6.23047C15.918-6.23047 16.25-6.5625 16.25-7.04102C16.25-7.5293 15.918-7.87109 15.4297-7.87109L12.5195-7.87109L12.5195-10.7617C12.5195-11.2695 12.1777-11.6016 11.6895-11.6016C11.2109-11.6016 10.8789-11.2598 10.8789-10.7617L10.8789-7.87109L7.98828-7.87109C7.48047-7.87109 7.14844-7.5293 7.14844-7.04102C7.14844-6.5625 7.49023-6.23047 7.98828-6.23047Z"/>
  </g>
  <g id="" transform="matrix(1 0 0 1 304.924 1933)">
   <path d="M14.9707 5.66406C21.9336 5.66406 27.6953-0.0976562 27.6953-7.05078C27.6953-14.0137 21.9238-19.7754 14.9609-19.7754C8.00781-19.7754 2.25586-14.0137 2.25586-7.05078C2.25586-0.0976562 8.01758 5.66406 14.9707 5.66406ZM14.9707 3.84766C8.93555 3.84766 4.08203-1.01562 4.08203-7.05078C4.08203-13.0957 8.92578-17.9492 14.9609-17.9492C21.0059-17.9492 25.8594-13.0957 25.8691-7.05078C25.8789-1.01562 21.0156 3.84766 14.9707 3.84766ZM10.0586-6.14258L14.0625-6.14258L14.0625-2.12891C14.0625-1.5918 14.4336-1.2207 14.9512-1.2207C15.4883-1.2207 15.8594-1.5918 15.8594-2.12891L15.8594-6.14258L19.8828-6.14258C20.4102-6.14258 20.791-6.51367 20.791-7.03125C20.791-7.56836 20.4199-7.94922 19.8828-7.94922L15.8594-7.94922L15.8594-11.9531C15.8594-12.5098 15.4883-12.8809 14.9512-12.8809C14.4336-12.8809 14.0625-12.5 14.0625-11.9531L14.0625-7.94922L10.0586-7.94922C9.50195-7.94922 9.13086-7.56836 9.13086-7.03125C9.13086-6.51367 9.51172-6.14258 10.0586-6.14258Z"/>
  </g>
  <text style="stroke:none;fill:black;font-family:-apple-system,&quot;SF Pro Display&quot;,&quot;SF Pro Text&quot;,Helvetica,sans-serif;font-weight:bold;" transform="matrix(1 0 0 1 263 1953)">Design Variations</text>
  <text style="stroke:none;fill:black;font-family:-apple-system,&quot;SF Pro Display&quot;,&quot;SF Pro Text&quot;,Helvetica,sans-serif;" transform="matrix(1 0 0 1 263 1971)">Symbols are supported in up to nine weights and three scales.</text>
  <text style="stroke:none;fill:black;font-family:-apple-system,&quot;SF Pro Display&quot;,&quot;SF Pro Text&quot;,Helvetica,sans-serif;" transform="matrix(1 0 0 1 263 1989)">For optimal layout with text and other symbols, vertically align</text>
  <text style="stroke:none;fill:black;font-family:-apple-system,&quot;SF Pro Display&quot;,&quot;SF Pro Text&quot;,Helvetica,sans-serif;" transform="matrix(1 0 0 1 263 2007)">symbols with the adjacent text.</text>
  <line id="" style="fill:none;stroke:#00AEEF;stroke-width:0.5;opacity:1.0;" x1="776" x2="776" y1="1919" y2="1933"/>
  <g id="" transform="matrix(1 0 0 1 776 1933)">
   <path d="M3.31055 0.126953C3.82812 0.126953 4.08203-0.0683594 4.26758-0.605469L5.52734-4.0625L11.2891-4.0625L12.5488-0.605469C12.7344-0.0683594 12.9883 0.126953 13.4961 0.126953C14.0137 0.126953 14.3457-0.185547 14.3457-0.673828C14.3457-0.839844 14.3164-0.986328 14.2383-1.20117L9.6582-13.3887C9.43359-13.9941 9.0332-14.2871 8.4082-14.2871C7.80273-14.2871 7.39258-13.9941 7.17773-13.3984L2.59766-1.19141C2.51953-0.976562 2.49023-0.830078 2.49023-0.664062C2.49023-0.175781 2.80273 0.126953 3.31055 0.126953ZM6.00586-5.53711L8.37891-12.1094L8.42773-12.1094L10.8008-5.53711Z"/>
  </g>
  <line id="" style="fill:none;stroke:#00AEEF;stroke-width:0.5;opacity:1.0;" x1="792.836" x2="792.836" y1="1919" y2="1933"/>
  <text style="stroke:none;fill:black;font-family:-apple-system,&quot;SF Pro Display&quot;,&quot;SF Pro Text&quot;,Helvetica,sans-serif;font-weight:bold;" transform="matrix(1 0 0 1 776 1953)">Margins</text>
  <text style="stroke:none;fill:black;font-family:-apple-system,&quot;SF Pro Display&quot;,&quot;SF Pro Text&quot;,Helvetica,sans-serif;" transform="matrix(1 0 0 1 776 1971)">Leading and trailing margins on the left and right side of each symbol</text>
  <text style="stroke:none;fill:black;font-family:-apple-system,&quot;SF Pro Display&quot;,&quot;SF Pro Text&quot;,Helvetica,sans-serif;" transform="matrix(1 0 0 1 776 1989)">can be adjusted by modifying the x-location of the margin guidelines.</text>
  <text style="stroke:none;fill:black;font-family:-apple-system,&quot;SF Pro Display&quot;,&quot;SF Pro Text&quot;,Helvetica,sans-serif;" transform="matrix(1 0 0 1 776 2007)">Modifications are automatically applied proportionally to all</text>
  <text style="stroke:none;fill:black;font-family:-apple-system,&quot;SF Pro Display&quot;,&quot;SF Pro Text&quot;,Helvetica,sans-serif;" transform="matrix(1 0 0 1 776 2025)">scales and weights.</text>
  <g id="" transform="matrix(1 0 0 1 1289 1933)">
   <path d="M2.8418 1.86523L4.54102 3.57422C5.40039 4.44336 6.38672 4.38477 7.31445 3.35938L17.4902-7.85156C17.7539-7.76367 18.0273-7.7832 18.3398-7.8418L19.4043-8.03711L20.0684-7.36328L20.0293-6.80664C19.9902-6.30859 20.1172-5.92773 20.6055-5.44922L21.3672-4.70703C21.8457-4.22852 22.4609-4.19922 22.9297-4.66797L25.8398-7.58789C26.3086-8.05664 26.2891-8.65234 25.8105-9.13086L25.0391-9.89258C24.5605-10.3711 24.1895-10.5273 23.7109-10.4883L23.1348-10.4395L22.4902-11.0742L22.7344-12.1973C22.8613-12.7637 22.7051-13.2031 22.1191-13.7891L19.9219-15.9766C16.582-19.2969 12.1484-19.2188 9.25781-16.3281C8.83789-15.918 8.80859-15.3418 9.04297-14.9512C9.27734-14.5898 9.73633-14.3555 10.3809-14.5215C11.8457-14.8633 13.3691-14.9219 14.7949-13.9844L14.209-12.5293C14.0137-12.0508 13.9844-11.6504 14.1113-11.2891L3.04688-0.898438C2.06055 0.0195312 1.98242 0.996094 2.8418 1.86523ZM10.752-15.957C13.1836-17.7344 16.4746-17.4316 18.7012-15.2051L21.1328-12.793C21.3672-12.5586 21.4062-12.373 21.3379-12.0312L21.0156-10.5469L22.5195-9.0625L23.5059-9.12109C23.7598-9.13086 23.8379-9.11133 24.0332-8.91602L24.6094-8.33984L22.168-5.89844L21.5918-6.47461C21.3965-6.66992 21.3672-6.74805 21.377-7.01172L21.4453-7.98828L19.9512-9.47266L18.4277-9.21875C18.1055-9.15039 17.959-9.17969 17.7148-9.41406L15.7129-11.416C15.459-11.6504 15.4297-11.8164 15.5859-12.1875L16.4648-14.2773C14.9023-15.7324 12.8711-16.3574 10.8398-15.7617C10.6836-15.7227 10.625-15.8496 10.752-15.957ZM5.27344 2.30469L4.10156 1.14258C3.63281 0.683594 3.74023 0.341797 4.14062-0.0195312L14.9512-10.1953L16.416-8.71094L6.42578 2.27539C6.07422 2.67578 5.74219 2.77344 5.27344 2.30469Z"/>
  </g>
  <text style="stroke:none;fill:black;font-family:-apple-system,&quot;SF Pro Display&quot;,&quot;SF Pro Text&quot;,Helvetica,sans-serif;font-weight:bold;" transform="matrix(1 0 0 1 1289 1953)">Exporting</text>
  <text style="stroke:none;fill:black;font-family:-apple-system,&quot;SF Pro Display&quot;,&quot;SF Pro Text&quot;,Helvetica,sans-serif;" transform="matrix(1 0 0 1 1289 1971)">Symbols should be outlined when exporting to ensure the</text>
  <text style="stroke:none;fill:black;font-family:-apple-system,&quot;SF Pro Display&quot;,&quot;SF Pro Text&quot;,Helvetica,sans-serif;" transform="matrix(1 0 0 1 1289 1989)">design is preserved when submitting to Xcode.</text>
  <text id="template-version" style="stroke:none;fill:black;font-family:-apple-system,&quot;SF Pro Display&quot;,&quot;SF Pro Text&quot;,Helvetica,sans-serif;text-anchor:end;" transform="matrix(1 0 0 1 3036 1933)">Template v.2.0</text>
  <text style="stroke:none;fill:black;font-family:-apple-system,&quot;SF Pro Display&quot;,&quot;SF Pro Text&quot;,Helvetica,sans-serif;text-anchor:end;" transform="matrix(1 0 0 1 3036 1951)">Requires Xcode 12 or greater</text>
  <text style="stroke:none;fill:black;font-family:-apple-system,&quot;SF Pro Display&quot;,&quot;SF Pro Text&quot;,Helvetica,sans-serif;text-anchor:end;" transform="matrix(1 0 0 1 3036 1969)">Generated from newspaper</text>
  <text style="stroke:none;fill:black;font-family:-apple-system,&quot;SF Pro Display&quot;,&quot;SF Pro Text&quot;,Helvetica,sans-serif;text-anchor:end;" transform="matrix(1 0 0 1 3036 1987)">Typeset at 100 points</text>
  <text style="stroke:none;fill:black;font-family:-apple-system,&quot;SF Pro Display&quot;,&quot;SF Pro Text&quot;,Helvetica,sans-serif;" transform="matrix(1 0 0 1 263 726)">Small</text>
  <text style="stroke:none;fill:black;font-family:-apple-system,&quot;SF Pro Display&quot;,&quot;SF Pro Text&quot;,Helvetica,sans-serif;" transform="matrix(1 0 0 1 263 1156)">Medium</text>
  <text style="stroke:none;fill:black;font-family:-apple-system,&quot;SF Pro Display&quot;,&quot;SF Pro Text&quot;,Helvetica,sans-serif;" transform="matrix(1 0 0 1 263 1586)">Large</text>
 </g>
 <g id="Guides">
  <g id="H-reference" style="fill:#27AAE1;stroke:none;" transform="matrix(1 0 0 1 339 696)">
   <path d="M0.976562 0L3.66211 0L12.9883-24.4629L45.752-24.4629L55.127 0L57.7637 0L30.6152-70.459L28.125-70.459ZM29.3457-67.1387L29.4434-67.1387L44.873-26.709L13.8672-26.709Z"/>
  </g>
  <line id="Baseline-S" style="fill:none;stroke:#27AAE1;opacity:1;stroke-width:0.5;" x1="263" x2="3036" y1="696" y2="696"/>
  <line id="Capline-S" style="fill:none;stroke:#27AAE1;opacity:1;stroke-width:0.5;" x1="263" x2="3036" y1="625.541" y2="625.541"/>
  <g id="H-reference" style="fill:#27AAE1;stroke:none;" transform="matrix(1 0 0 1 339 1126)">
   <path d="M0.976562 0L3.66211 0L12.9883-24.4629L45.752-24.4629L55.127 0L57.7637 0L30.6152-70.459L28.125-70.459ZM29.3457-67.1387L29.4434-67.1387L44.873-26.709L13.8672-26.709Z"/>
  </g>
  <line id="Baseline-M" style="fill:none;stroke:#27AAE1;opacity:1;stroke-width:0.5;" x1="263" x2="3036" y1="1126" y2="1126"/>
  <line id="Capline-M" style="fill:none;stroke:#27AAE1;opacity:1;stroke-width:0.5;" x1="263" x2="3036" y1="1055.54" y2="1055.54"/>
  <g id="H-reference" style="fill:#27AAE1;stroke:none;" transform="matrix(1 0 0 1 339 1556)">
   <path d="M0.976562 0L3.66211 0L12.9883-24.4629L45.752-24.4629L55.127 0L57.7637 0L30.6152-70.459L28.125-70.459ZM29.3457-67.1387L29.4434-67.1387L44.873-26.709L13.8672-26.709Z"/>
  </g>
  <line id="Baseline-L" style="fill:none;stroke:#27AAE1;opacity:1;stroke-width:0.5;" x1="263" x2="3036" y1="1556" y2="1556"/>
  <line id="Capline-L" style="fill:none;stroke:#27AAE1;opacity:1;stroke-width:0.5;" x1="263" x2="3036" y1="1485.54" y2="1485.54"/>
  <line id="left-margin" style="fill:none;stroke:#00AEEF;stroke-width:0.5;opacity:1.0;" x1="1380.87" x2="1380.87" y1="1030.79" y2="1150.12"/>
  <line id="right-margin" style="fill:none;stroke:#00AEEF;stroke-width:0.5;opacity:1.0;" x1="1518.81" x2="1518.81" y1="1030.79" y2="1150.12"/>
 </g>
 <g id="Symbols">
  <g id="Black-L" transform="matrix(1 0 0 1 2837.48 1556)">
   <path d="M16.0645 11.3281C16.0645 26.0742 26.1719 35.2539 42.334 35.2539L151.904 35.2539C167.139 35.2539 175.781 26.6113 175.781 11.4258L175.781-81.8359C175.781-97.0215 167.139-105.664 151.904-105.664L72.2656-105.664C56.9824-105.664 48.3398-97.0215 48.3398-81.8359L48.3398-60.3516L38.0859-60.3516C24.2676-60.3516 16.0645-52.2949 16.0645-38.623ZM67.9199 14.9902C68.3594 13.8184 68.6035 12.6465 68.6035 11.1328L68.6035-78.9551C68.6035-83.3008 70.5078-85.4004 75-85.4004L149.17-85.4004C153.613-85.4004 155.566-83.3008 155.566-78.9551L155.566 8.54492C155.566 12.8906 153.613 14.9902 149.17 14.9902ZM83.2031-60.4004L141.016-60.4004C144.043-60.4004 146.436-62.8418 146.436-65.8691C146.436-68.8965 144.092-71.2402 141.016-71.2402L83.2031-71.2402C80.0781-71.2402 77.7344-68.8965 77.7344-65.8691C77.7344-62.8418 80.127-60.4004 83.2031-60.4004ZM83.2031-40.1367L141.016-40.1367C144.092-40.1367 146.436-42.4316 146.436-45.459C146.436-48.5352 144.043-50.9277 141.016-50.9277L83.2031-50.9277C80.127-50.9277 77.7344-48.5352 77.7344-45.459C77.7344-42.4316 80.0781-40.1367 83.2031-40.1367ZM36.3281 8.64258L36.3281-35.2539C36.3281-38.1836 38.2324-40.1367 41.1621-40.1367L48.3398-40.1367L48.3398 8.64258C48.3398 12.4023 45.8496 14.9902 42.334 14.9902C38.8184 14.9902 36.3281 12.3535 36.3281 8.64258ZM86.1816-0.0976562L99.8047-0.0976562C105.029-0.0976562 108.301-3.36914 108.301-8.59375L108.301-22.1191C108.301-27.2949 105.029-30.5664 99.8047-30.5664L86.1816-30.5664C80.9082-30.5664 77.6367-27.2949 77.6367-22.1191L77.6367-8.59375C77.6367-3.36914 80.9082-0.0976562 86.1816-0.0976562ZM118.896-19.7754L141.016-19.7754C144.043-19.7754 146.387-22.1191 146.387-25.0977C146.387-28.1738 144.043-30.5664 141.016-30.5664L118.896-30.5664C115.771-30.5664 113.428-28.1738 113.428-25.0977C113.428-22.1191 115.82-19.7754 118.896-19.7754ZM118.896-0.0976562L141.016-0.0976562C144.043-0.0976562 146.387-2.44141 146.387-5.41992C146.387-8.49609 144.043-10.8887 141.016-10.8887L118.896-10.8887C115.82-10.8887 113.428-8.49609 113.428-5.41992C113.428-2.44141 115.771-0.0976562 118.896-0.0976562Z"/>
  </g>
  <g id="Heavy-L" transform="matrix(1 0 0 1 2542.65 1556)">
   <path d="M16.0645 12.0117C16.0645 26.0254 25.1465 34.4727 40.332 34.4727L149.268 34.4727C163.916 34.4727 172.021 26.416 172.021 11.8652L172.021-82.2754C172.021-96.8262 163.916-104.932 149.268-104.932L69.7754-104.932C55.1758-104.932 47.0215-96.8262 47.0215-82.2754L47.0215-58.4473L35.6934-58.4473C23.3398-58.4473 16.0645-51.2695 16.0645-39.209ZM63.4277 16.9922C64.1602 15.4785 64.5508 13.8184 64.5508 11.7676L64.5508-79.9805C64.5508-84.9121 66.8945-87.4023 71.9238-87.4023L147.119-87.4023C152.148-87.4023 154.492-84.9121 154.492-79.9805L154.492 9.57031C154.492 14.502 152.148 16.9922 147.119 16.9922ZM79.6875-61.7188L139.404-61.7188C142.188-61.7188 144.336-63.916 144.336-66.6992C144.336-69.4336 142.188-71.582 139.404-71.582L79.6875-71.582C76.8555-71.582 74.707-69.4336 74.707-66.6992C74.707-63.916 76.9043-61.7188 79.6875-61.7188ZM79.6875-40.918L139.404-40.918C142.188-40.918 144.336-43.0664 144.336-45.8008C144.336-48.584 142.188-50.7812 139.404-50.7812L79.6875-50.7812C76.9043-50.7812 74.707-48.584 74.707-45.8008C74.707-43.0664 76.8555-40.918 79.6875-40.918ZM33.5938 10.0098L33.5938-36.2793C33.5938-39.1113 35.4004-40.918 38.2324-40.918L47.0215-40.918L47.0215 10.0098C47.0215 14.1113 44.1895 16.9922 40.332 16.9922C36.4258 16.9922 33.5938 14.0625 33.5938 10.0098ZM82.9102 0.341797L97.168 0.341797C102.295 0.341797 105.42-2.83203 105.42-7.91016L105.42-21.6797C105.42-26.7578 102.295-29.9316 97.168-29.9316L82.9102-29.9316C77.7832-29.9316 74.6094-26.7578 74.6094-21.6797L74.6094-7.91016C74.6094-2.83203 77.7832 0.341797 82.9102 0.341797ZM116.26-20.0684L139.355-20.0684C142.139-20.0684 144.287-22.2168 144.287-24.9023C144.287-27.7344 142.139-29.9316 139.355-29.9316L116.26-29.9316C113.379-29.9316 111.23-27.7344 111.23-24.9023C111.23-22.2168 113.428-20.0684 116.26-20.0684ZM116.26 0.341797L139.355 0.341797C142.139 0.341797 144.287-1.75781 144.287-4.54102C144.287-7.27539 142.139-9.52148 139.355-9.52148L116.26-9.52148C113.428-9.52148 111.23-7.27539 111.23-4.54102C111.23-1.75781 113.379 0.341797 116.26 0.341797Z"/>
  </g>
  <g id="Bold-L" transform="matrix(1 0 0 1 2248.06 1556)">
   <path d="M16.0645 12.8418C16.0645 25.9766 24.0234 33.6426 38.0859 33.6426L146.289 33.6426C160.254 33.6426 167.773 26.1719 167.773 12.3535L167.773-82.7637C167.773-96.582 160.254-104.053 146.289-104.053L67.041-104.053C53.0762-104.053 45.5566-96.582 45.5566-82.7637L45.5566-56.25L33.0078-56.25C22.3633-56.25 16.0645-50.1953 16.0645-39.8438ZM58.4473 19.1895C59.4727 17.2852 60.0098 15.1367 60.0098 12.4512L60.0098-81.1035C60.0098-86.7676 62.8418-89.6484 68.5059-89.6484L144.873-89.6484C150.488-89.6484 153.32-86.7676 153.32-81.1035L153.32 10.6934C153.32 16.3574 150.488 19.1895 144.873 19.1895ZM75.8301-63.1836L137.598-63.1836C140.088-63.1836 141.992-65.1367 141.992-67.627C141.992-70.0684 140.088-71.9727 137.598-71.9727L75.8301-71.9727C73.2422-71.9727 71.3379-70.0684 71.3379-67.627C71.3379-65.1367 73.291-63.1836 75.8301-63.1836ZM75.8301-41.8457L137.598-41.8457C140.088-41.8457 141.992-43.7012 141.992-46.1914C141.992-48.6328 140.088-50.6348 137.598-50.6348L75.8301-50.6348C73.291-50.6348 71.3379-48.6328 71.3379-46.1914C71.3379-43.7012 73.2422-41.8457 75.8301-41.8457ZM30.5176 11.4746L30.5176-37.4023C30.5176-40.1367 32.2266-41.8457 35.0098-41.8457L45.5566-41.8457L45.5566 11.4746C45.5566 16.0156 42.3828 19.1895 38.0859 19.1895C33.6914 19.1895 30.5176 15.918 30.5176 11.4746ZM79.248 0.830078L94.2383 0.830078C99.2188 0.830078 102.246-2.19727 102.246-7.12891L102.246-21.2402C102.246-26.123 99.2188-29.1992 94.2383-29.1992L79.248-29.1992C74.3164-29.1992 71.2402-26.123 71.2402-21.2402L71.2402-7.12891C71.2402-2.19727 74.3164 0.830078 79.248 0.830078ZM113.281-20.4102L137.549-20.4102C140.039-20.4102 141.943-22.3145 141.943-24.7559C141.943-27.2461 140.039-29.1992 137.549-29.1992L113.281-29.1992C110.742-29.1992 108.838-27.2461 108.838-24.7559C108.838-22.3145 110.742-20.4102 113.281-20.4102ZM113.281 0.830078L137.549 0.830078C140.039 0.830078 141.943-1.07422 141.943-3.51562C141.943-5.95703 140.039-7.95898 137.549-7.95898L113.281-7.95898C110.742-7.95898 108.838-5.95703 108.838-3.51562C108.838-1.07422 110.742 0.830078 113.281 0.830078Z"/>
  </g>
  <g id="Semibold-L" transform="matrix(1 0 0 1 1952.81 1556)">
   <path d="M16.0645 13.3789C16.0645 25.9277 23.2422 33.0566 36.5234 33.0566L144.238 33.0566C157.715 33.0566 164.844 26.0254 164.844 12.6953L164.844-83.1055C164.844-96.4355 157.715-103.516 144.238-103.516L65.1367-103.516C51.6602-103.516 44.5801-96.4355 44.5801-83.1055L44.5801-54.7852L31.2012-54.7852C21.6797-54.7852 16.0645-49.4141 16.0645-40.332ZM54.9805 20.752C56.25 18.5547 56.8848 16.0156 56.8848 12.9395L56.8848-81.8848C56.8848-88.0371 60.0586-91.1621 66.1133-91.1621L143.262-91.1621C149.316-91.1621 152.49-88.0371 152.49-81.8848L152.49 11.4746C152.49 17.627 149.316 20.752 143.262 20.752ZM73.1445-64.209L136.328-64.209C138.623-64.209 140.381-66.0156 140.381-68.2617C140.381-70.5078 138.672-72.2656 136.328-72.2656L73.1445-72.2656C70.752-72.2656 69.043-70.5078 69.043-68.2617C69.043-66.0156 70.8008-64.209 73.1445-64.209ZM73.1445-42.4316L136.328-42.4316C138.672-42.4316 140.381-44.1895 140.381-46.4355C140.381-48.6816 138.623-50.4883 136.328-50.4883L73.1445-50.4883C70.8008-50.4883 69.043-48.6816 69.043-46.4355C69.043-44.1895 70.752-42.4316 73.1445-42.4316ZM28.418 12.5L28.418-38.1836C28.418-40.8203 30.0781-42.4316 32.7637-42.4316L44.5801-42.4316L44.5801 12.5C44.5801 17.334 41.1133 20.752 36.5234 20.752C31.8359 20.752 28.418 17.2363 28.418 12.5ZM76.709 1.17188L92.2363 1.17188C97.0703 1.17188 100.049-1.80664 100.049-6.64062L100.049-20.8984C100.049-25.6836 97.0703-28.7109 92.2363-28.7109L76.709-28.7109C71.875-28.7109 68.8965-25.6836 68.8965-20.8984L68.8965-6.64062C68.8965-1.80664 71.875 1.17188 76.709 1.17188ZM111.23-20.6543L136.328-20.6543C138.623-20.6543 140.332-22.4121 140.332-24.6094C140.332-26.9043 138.623-28.7109 136.328-28.7109L111.23-28.7109C108.887-28.7109 107.129-26.9043 107.129-24.6094C107.129-22.4121 108.887-20.6543 111.23-20.6543ZM111.23 1.17188L136.328 1.17188C138.623 1.17188 140.332-0.537109 140.332-2.7832C140.332-5.07812 138.623-6.88477 136.328-6.88477L111.23-6.88477C108.887-6.88477 107.129-5.07812 107.129-2.7832C107.129-0.537109 108.887 1.17188 111.23 1.17188Z"/>
  </g>
  <g id="Medium-L" transform="matrix(1 0 0 1 1657.22 1556)">
   <path d="M16.0645 13.7695C16.0645 25.8789 22.7051 32.666 35.3027 32.666L142.725 32.666C155.811 32.666 162.598 25.9277 162.598 12.9395L162.598-83.3496C162.598-96.3379 155.811-103.076 142.725-103.076L63.7207-103.076C50.5859-103.076 43.7988-96.3379 43.7988-83.3496L43.7988-53.6621L29.7852-53.6621C21.1914-53.6621 16.0645-48.8281 16.0645-40.6738ZM52.3438 21.9238C53.8086 19.5312 54.541 16.6992 54.541 13.3301L54.541-82.4707C54.541-88.9648 57.9102-92.334 64.3066-92.334L142.09-92.334C148.486-92.334 151.855-88.9648 151.855-82.4707L151.855 12.0605C151.855 18.5547 148.486 21.9238 142.09 21.9238ZM71.0938-64.9414L135.4-64.9414C137.549-64.9414 139.16-66.6504 139.16-68.75C139.16-70.8496 137.549-72.4609 135.4-72.4609L71.0938-72.4609C68.8965-72.4609 67.2852-70.8496 67.2852-68.75C67.2852-66.6504 68.8965-64.9414 71.0938-64.9414ZM71.0938-42.9199L135.4-42.9199C137.549-42.9199 139.16-44.5312 139.16-46.6309C139.16-48.7305 137.549-50.4395 135.4-50.4395L71.0938-50.4395C68.8965-50.4395 67.2852-48.7305 67.2852-46.6309C67.2852-44.5312 68.8965-42.9199 71.0938-42.9199ZM26.8066 13.2812L26.8066-38.8184C26.8066-41.3574 28.418-42.9199 31.0547-42.9199L43.7988-42.9199L43.7988 13.2812C43.7988 18.3594 40.1367 21.9238 35.3027 21.9238C30.4688 21.9238 26.8066 18.2129 26.8066 13.2812ZM74.8047 1.46484L90.6738 1.46484C95.459 1.46484 98.3887-1.46484 98.3887-6.20117L98.3887-20.6543C98.3887-25.3906 95.459-28.3203 90.6738-28.3203L74.8047-28.3203C70.0684-28.3203 67.1387-25.3906 67.1387-20.6543L67.1387-6.20117C67.1387-1.46484 70.0684 1.46484 74.8047 1.46484ZM109.668-20.8008L135.352-20.8008C137.5-20.8008 139.111-22.4609 139.111-24.5117C139.111-26.6602 137.5-28.3203 135.352-28.3203L109.668-28.3203C107.471-28.3203 105.859-26.6602 105.859-24.5117C105.859-22.4609 107.52-20.8008 109.668-20.8008ZM109.668 1.46484L135.352 1.46484C137.5 1.46484 139.111-0.195312 139.111-2.24609C139.111-4.39453 137.5-6.05469 135.352-6.05469L109.668-6.05469C107.52-6.05469 105.859-4.39453 105.859-2.24609C105.859-0.195312 107.471 1.46484 109.668 1.46484Z"/>
  </g>
  <g id="Regular-L" transform="matrix(1 0 0 1 1361.95 1556)">
   <path d="M16.0645 14.3066C16.0645 25.8789 21.9238 32.0801 33.7891 32.0801L140.674 32.0801C153.32 32.0801 159.717 25.7324 159.717 13.2812L159.717-83.6914C159.717-96.1914 153.32-102.49 140.674-102.49L61.8164-102.49C49.1699-102.49 42.8223-96.1914 42.8223-83.6914L42.8223-52.1973L27.9785-52.1973C20.5078-52.1973 16.0645-48.0957 16.0645-41.1133ZM48.9258 23.4375C50.5859 20.8008 51.4648 17.5781 51.4648 13.8184L51.4648-83.2031C51.4648-90.2344 55.1758-93.8477 61.9629-93.8477L140.527-93.8477C147.363-93.8477 151.074-90.2344 151.074-83.2031L151.074 12.793C151.074 19.8242 147.363 23.4375 140.527 23.4375ZM68.457-65.9668L134.18-65.9668C136.133-65.9668 137.598-67.4805 137.598-69.3848C137.598-71.2891 136.133-72.7539 134.18-72.7539L68.457-72.7539C66.4551-72.7539 64.9902-71.2891 64.9902-69.3848C64.9902-67.4805 66.4551-65.9668 68.457-65.9668ZM68.457-43.5547L134.18-43.5547C136.133-43.5547 137.598-45.0195 137.598-46.875C137.598-48.7793 136.133-50.293 134.18-50.293L68.457-50.293C66.4551-50.293 64.9902-48.7793 64.9902-46.875C64.9902-45.0195 66.4551-43.5547 68.457-43.5547ZM24.707 14.3066L24.707-39.5508C24.707-42.041 26.2695-43.5547 28.8086-43.5547L42.8223-43.5547L42.8223 14.3066C42.8223 19.6289 38.916 23.4375 33.7891 23.4375C28.6133 23.4375 24.707 19.4824 24.707 14.3066ZM72.3145 1.75781L88.7207 1.75781C93.3594 1.75781 96.1914-1.07422 96.1914-5.71289L96.1914-20.3613C96.1914-24.9512 93.3594-27.832 88.7207-27.832L72.3145-27.832C67.6758-27.832 64.7949-24.9512 64.7949-20.3613L64.7949-5.71289C64.7949-1.07422 67.6758 1.75781 72.3145 1.75781ZM107.666-21.0449L134.131-21.0449C136.084-21.0449 137.549-22.5098 137.549-24.3652C137.549-26.3184 136.084-27.832 134.131-27.832L107.666-27.832C105.664-27.832 104.199-26.3184 104.199-24.3652C104.199-22.5098 105.664-21.0449 107.666-21.0449ZM107.666 1.75781L134.131 1.75781C136.084 1.75781 137.549 0.292969 137.549-1.5625C137.549-3.4668 136.084-4.98047 134.131-4.98047L107.666-4.98047C105.664-4.98047 104.199-3.4668 104.199-1.5625C104.199 0.292969 105.664 1.75781 107.666 1.75781Z"/>
  </g>
  <g id="Light-L" transform="matrix(1 0 0 1 1066.76 1556)">
   <path d="M16.0645 15.7715C16.0645 25.9277 21.3867 31.7871 32.0312 31.7871L138.721 31.7871C150.586 31.7871 156.689 25.6836 156.689 13.916L156.689-84.2285C156.689-96.0449 150.586-102.1 138.721-102.1L59.3262-102.1C47.4609-102.1 41.3574-96.0449 41.3574-84.2285L41.3574-50.7812L26.8066-50.7812C20.0684-50.7812 16.0645-47.0703 16.0645-40.7715ZM45.0195 25.1465C46.9727 22.6074 47.9492 19.3359 47.9492 15.4785L47.9492-83.8867C47.9492-91.5527 51.9531-95.5078 59.4727-95.5078L138.574-95.5078C146.045-95.5078 150.098-91.5527 150.098-83.8867L150.098 13.5742C150.098 21.1914 146.045 25.1465 138.574 25.1465ZM65.8203-66.8945L132.324-66.8945C133.887-66.8945 135.059-68.1152 135.059-69.6777C135.059-71.1426 133.887-72.3633 132.324-72.3633L65.8203-72.3633C64.209-72.3633 62.9883-71.1426 62.9883-69.6777C62.9883-68.1152 64.209-66.8945 65.8203-66.8945ZM65.8203-44.1406L132.324-44.1406C133.887-44.1406 135.059-45.3125 135.059-46.8262C135.059-48.3887 133.887-49.5605 132.324-49.5605L65.8203-49.5605C64.209-49.5605 62.9883-48.3887 62.9883-46.8262C62.9883-45.3125 64.209-44.1406 65.8203-44.1406ZM22.7051 15.7227L22.7051-39.7461C22.7051-42.4805 24.4141-44.1406 27.3438-44.1406L41.3574-44.1406L41.3574 15.7227C41.3574 21.2891 37.4512 25.1465 32.0312 25.1465C26.6113 25.1465 22.7051 21.1914 22.7051 15.7227ZM69.9707 1.66016L86.4258 1.66016C90.8203 1.66016 93.6035-1.12305 93.6035-5.46875L93.6035-19.6289C93.6035-24.0234 90.8203-26.8066 86.4258-26.8066L69.9707-26.8066C65.5273-26.8066 62.7441-24.0234 62.7441-19.6289L62.7441-5.46875C62.7441-1.12305 65.5273 1.66016 69.9707 1.66016ZM105.225-21.3379L132.275-21.3379C133.838-21.3379 135.01-22.5098 135.01-24.0234C135.01-25.5859 133.838-26.8066 132.275-26.8066L105.225-26.8066C103.613-26.8066 102.441-25.5859 102.441-24.0234C102.441-22.5098 103.613-21.3379 105.225-21.3379ZM105.225 1.66016L132.275 1.66016C133.838 1.66016 135.01 0.488281 135.01-1.02539C135.01-2.53906 133.838-3.75977 132.275-3.75977L105.225-3.75977C103.613-3.75977 102.441-2.53906 102.441-1.02539C102.441 0.488281 103.613 1.66016 105.225 1.66016Z"/>
  </g>
  <g id="Thin-L" transform="matrix(1 0 0 1 772.047 1556)">
   <path d="M16.0645 17.6758C16.0645 25.9766 20.6543 31.3477 29.6875 31.3477L136.084 31.3477C146.973 31.3477 152.686 25.6348 152.686 14.7461L152.686-85.0098C152.686-95.8496 146.973-101.611 136.084-101.611L56.0059-101.611C45.166-101.611 39.4043-95.8496 39.4043-85.0098L39.4043-48.877L25.293-48.877C19.5312-48.877 16.0645-45.7031 16.0645-40.2832ZM39.7949 27.4414C42.1875 25.0488 43.3594 21.6797 43.3594 17.627L43.3594-84.8145C43.3594-93.2617 47.7539-97.6562 56.2012-97.6562L135.938-97.6562C144.385-97.6562 148.779-93.2617 148.779-84.8145L148.779 14.5508C148.779 23.0469 144.385 27.4414 135.938 27.4414ZM62.3535-68.1641L129.883-68.1641C130.957-68.1641 131.787-68.9941 131.787-70.0195C131.787-70.9961 130.957-71.8262 129.883-71.8262L62.3535-71.8262C61.2305-71.8262 60.4004-70.9961 60.4004-70.0195C60.4004-68.9941 61.2305-68.1641 62.3535-68.1641ZM62.3535-44.9707L129.883-44.9707C130.957-44.9707 131.787-45.752 131.787-46.7773C131.787-47.8027 130.957-48.6328 129.883-48.6328L62.3535-48.6328C61.2305-48.6328 60.4004-47.8027 60.4004-46.7773C60.4004-45.752 61.2305-44.9707 62.3535-44.9707ZM19.9707 17.5781L19.9707-39.9414C19.9707-43.0664 22.0215-44.9707 25.3418-44.9707L39.4043-44.9707L39.4043 17.5781C39.4043 23.4375 35.498 27.4414 29.6875 27.4414C23.9258 27.4414 19.9707 23.3887 19.9707 17.5781ZM66.8457 1.51367L83.3984 1.51367C87.5 1.51367 90.1367-1.17188 90.1367-5.17578L90.1367-18.7012C90.1367-22.7539 87.5-25.4395 83.3984-25.4395L66.8457-25.4395C62.7441-25.4395 60.0586-22.7539 60.0586-18.7012L60.0586-5.17578C60.0586-1.17188 62.7441 1.51367 66.8457 1.51367ZM102.002-21.7285L129.785-21.7285C130.859-21.7285 131.689-22.5586 131.689-23.584C131.689-24.6094 130.859-25.4395 129.785-25.4395L102.002-25.4395C100.879-25.4395 100.098-24.6094 100.098-23.584C100.098-22.5586 100.879-21.7285 102.002-21.7285ZM102.002 1.51367L129.785 1.51367C130.859 1.51367 131.689 0.683594 131.689-0.292969C131.689-1.31836 130.859-2.14844 129.785-2.14844L102.002-2.14844C100.879-2.14844 100.098-1.31836 100.098-0.292969C100.098 0.683594 100.879 1.51367 102.002 1.51367Z"/>
  </g>
  <g id="Ultralight-L" transform="matrix(1 0 0 1 476.337 1556)">
   <path d="M16.0645 18.7012C16.0645 26.0254 20.3125 31.1523 28.5156 31.1523L134.766 31.1523C145.117 31.1523 150.684 25.5859 150.684 15.1855L150.684-85.4004C150.684-95.8008 145.117-101.318 134.766-101.318L54.3457-101.318C43.9453-101.318 38.4277-95.8008 38.4277-85.4004L38.4277-47.9004L24.5117-47.9004C19.2383-47.9004 16.0645-44.9707 16.0645-40.0391ZM37.1094 28.5645C39.7461 26.2695 40.9668 22.9004 40.9668 18.75L40.9668-85.2539C40.9668-94.1406 45.5566-98.7793 54.4922-98.7793L134.619-98.7793C143.506-98.7793 148.096-94.1406 148.096-85.2539L148.096 15.0879C148.096 23.9746 143.506 28.5645 134.619 28.5645ZM60.5469-68.7988L128.613-68.7988C129.443-68.7988 130.078-69.4336 130.078-70.166C130.078-70.9473 129.443-71.582 128.613-71.582L60.5469-71.582C59.7168-71.582 59.082-70.9473 59.082-70.166C59.082-69.4336 59.7168-68.7988 60.5469-68.7988ZM60.5469-45.3613L128.613-45.3613C129.443-45.3613 130.078-45.9961 130.078-46.7773C130.078-47.5098 129.443-48.1445 128.613-48.1445L60.5469-48.1445C59.7168-48.1445 59.082-47.5098 59.082-46.7773C59.082-45.9961 59.7168-45.3613 60.5469-45.3613ZM18.6035 18.5059L18.6035-40.0879C18.6035-43.3594 20.752-45.3613 24.3164-45.3613L38.4277-45.3613L38.4277 18.5059C38.4277 24.5117 34.4727 28.5645 28.5156 28.5645C22.5586 28.5645 18.6035 24.5605 18.6035 18.5059ZM65.2344 1.46484L81.8359 1.46484C85.7422 1.46484 88.3789-1.17188 88.3789-5.0293L88.3789-18.2129C88.3789-22.0703 85.7422-24.707 81.8359-24.707L65.2344-24.707C61.2793-24.707 58.6426-22.0703 58.6426-18.2129L58.6426-5.0293C58.6426-1.17188 61.2793 1.46484 65.2344 1.46484ZM100.342-21.9238L128.516-21.9238C129.346-21.9238 129.98-22.5586 129.98-23.3398C129.98-24.0723 129.346-24.707 128.516-24.707L100.342-24.707C99.5117-24.707 98.877-24.0723 98.877-23.3398C98.877-22.5586 99.5117-21.9238 100.342-21.9238ZM100.342 1.46484L128.516 1.46484C129.346 1.46484 129.98 0.830078 129.98 0.0488281C129.98-0.732422 129.346-1.31836 128.516-1.31836L100.342-1.31836C99.5117-1.31836 98.877-0.732422 98.877 0.0488281C98.877 0.830078 99.5117 1.46484 100.342 1.46484Z"/>
  </g>
  <g id="Black-M" transform="matrix(1 0 0 1 2857.3 1126)">
   <path d="M12.4512 0.683594C12.4512 12.3535 21.3379 20.2148 34.6191 20.2148L120.215 20.2148C132.471 20.2148 139.746 12.9395 139.746 0.683594L139.746-71.0938C139.746-83.3496 132.471-90.625 120.215-90.625L58.0078-90.625C45.752-90.625 38.4766-83.3496 38.4766-71.0938L38.4766-56.543L32.1289-56.543C19.7754-56.543 12.4512-49.2188 12.4512-36.8652ZM56.5918 1.9043C56.6895 1.51367 56.7383 1.26953 56.7383 0.683594L56.7383-68.1641C56.7383-70.9961 57.8125-72.3145 60.9375-72.3145L117.285-72.3145C120.361-72.3145 121.484-70.9961 121.484-68.1641L121.484-2.24609C121.484 0.585938 120.361 1.9043 117.285 1.9043ZM67.7734-53.4668L110.449-53.4668C112.988-53.4668 114.99-55.4688 114.99-58.0078C114.99-60.498 113.037-62.4512 110.449-62.4512L67.7734-62.4512C65.1855-62.4512 63.2324-60.498 63.2324-58.0078C63.2324-55.4688 65.2344-53.4668 67.7734-53.4668ZM67.7734-38.2324L110.449-38.2324C113.037-38.2324 114.99-40.1855 114.99-42.7246C114.99-45.2148 112.988-47.2168 110.449-47.2168L67.7734-47.2168C65.2344-47.2168 63.2324-45.2148 63.2324-42.7246C63.2324-40.1855 65.1855-38.2324 67.7734-38.2324ZM30.7617-2.24609L30.7617-33.9844C30.7617-36.5723 32.4219-38.2324 35.0098-38.2324L38.4766-38.2324L38.4766-2.24609C38.4766 0.292969 36.9141 1.9043 34.6191 1.9043C32.2754 1.9043 30.7617 0.292969 30.7617-2.24609ZM69.9219-8.64258L79.6387-8.64258C83.7402-8.64258 86.377-11.2793 86.377-15.3809L86.377-25.2441C86.377-29.2969 83.7402-31.9336 79.6387-31.9336L69.9219-31.9336C65.8203-31.9336 63.1836-29.2969 63.1836-25.2441L63.1836-15.3809C63.1836-11.2793 65.8203-8.64258 69.9219-8.64258ZM94.3848-23.0469L110.449-23.0469C112.988-23.0469 114.893-24.9512 114.893-27.3926C114.893-29.9805 112.988-31.9336 110.449-31.9336L94.3848-31.9336C91.8457-31.9336 89.8926-29.9805 89.8926-27.3926C89.8926-24.9512 91.8945-23.0469 94.3848-23.0469ZM94.3848-8.64258L110.449-8.64258C112.988-8.64258 114.893-10.5957 114.893-13.0859C114.893-15.5762 112.988-17.5781 110.449-17.5781L94.3848-17.5781C91.8945-17.5781 89.8926-15.5762 89.8926-13.0859C89.8926-10.5957 91.8457-8.64258 94.3848-8.64258Z"/>
  </g>
  <g id="Heavy-M" transform="matrix(1 0 0 1 2562.27 1126)">
   <path d="M12.4512 1.07422C12.4512 12.3047 20.3613 19.4824 32.8613 19.4824L117.871 19.4824C129.639 19.4824 136.377 12.7441 136.377 0.976562L136.377-71.3867C136.377-83.1543 129.639-89.8926 117.871-89.8926L55.957-89.8926C44.1895-89.8926 37.4023-83.1543 37.4023-71.3867L37.4023-54.7852L29.7852-54.7852C18.8965-54.7852 12.4512-48.3887 12.4512-37.5977ZM52.7344 3.66211C53.0762 2.88086 53.2227 2.09961 53.2227 0.976562L53.2227-69.043C53.2227-72.4121 54.6875-74.0723 58.2031-74.0723L115.576-74.0723C119.092-74.0723 120.557-72.4121 120.557-69.043L120.557-1.36719C120.557 2.00195 119.092 3.66211 115.576 3.66211ZM64.6484-54.6875L109.18-54.6875C111.475-54.6875 113.33-56.4941 113.33-58.8379C113.33-61.1328 111.523-62.9395 109.18-62.9395L64.6484-62.9395C62.2559-62.9395 60.4492-61.1328 60.4492-58.8379C60.4492-56.4941 62.3047-54.6875 64.6484-54.6875ZM64.6484-38.9648L109.18-38.9648C111.523-38.9648 113.33-40.7715 113.33-43.0664C113.33-45.4102 111.475-47.2168 109.18-47.2168L64.6484-47.2168C62.3047-47.2168 60.4492-45.4102 60.4492-43.0664C60.4492-40.7715 62.2559-38.9648 64.6484-38.9648ZM28.2715-1.17188L28.2715-35.0586C28.2715-37.4023 29.834-38.9648 32.2266-38.9648L37.4023-38.9648L37.4023-1.17188C37.4023 1.70898 35.5469 3.66211 32.8613 3.66211C30.127 3.66211 28.2715 1.66016 28.2715-1.17188ZM66.9434-8.1543L77.3926-8.1543C81.3965-8.1543 83.9355-10.6445 83.9355-14.6973L83.9355-24.9512C83.9355-28.9551 81.3965-31.4941 77.3926-31.4941L66.9434-31.4941C62.9395-31.4941 60.4004-28.9551 60.4004-24.9512L60.4004-14.6973C60.4004-10.6445 62.9395-8.1543 66.9434-8.1543ZM92.1387-23.291L109.18-23.291C111.475-23.291 113.281-25.0488 113.281-27.3438C113.281-29.6875 111.475-31.4941 109.18-31.4941L92.1387-31.4941C89.7461-31.4941 87.9883-29.6875 87.9883-27.3438C87.9883-25.0488 89.7949-23.291 92.1387-23.291ZM92.1387-8.1543L109.18-8.1543C111.475-8.1543 113.281-9.91211 113.281-12.207C113.281-14.5508 111.475-16.4062 109.18-16.4062L92.1387-16.4062C89.7949-16.4062 87.9883-14.5508 87.9883-12.207C87.9883-9.91211 89.7461-8.1543 92.1387-8.1543Z"/>
  </g>
  <g id="Bold-M" transform="matrix(1 0 0 1 2267.44 1126)">
   <path d="M12.4512 1.51367C12.4512 12.207 19.2871 18.6523 30.9082 18.6523L115.186 18.6523C126.416 18.6523 132.617 12.5 132.617 1.31836L132.617-71.7773C132.617-82.9102 126.416-89.1113 115.186-89.1113L53.6621-89.1113C42.4316-89.1113 36.2305-82.9102 36.2305-71.7773L36.2305-52.8809L27.1973-52.8809C17.9688-52.8809 12.4512-47.5098 12.4512-38.4277ZM48.3887 5.56641C48.9746 4.3457 49.3164 2.97852 49.3164 1.26953L49.3164-70.0684C49.3164-74.0234 51.2207-76.0254 55.1758-76.0254L113.672-76.0254C117.627-76.0254 119.531-74.0234 119.531-70.0684L119.531-0.341797C119.531 3.61328 117.627 5.56641 113.672 5.56641ZM61.1328-56.0059L107.764-56.0059C109.863-56.0059 111.523-57.666 111.523-59.7656C111.523-61.8652 109.863-63.4766 107.764-63.4766L61.1328-63.4766C58.9844-63.4766 57.373-61.8652 57.373-59.7656C57.373-57.666 58.9844-56.0059 61.1328-56.0059ZM61.1328-39.7949L107.764-39.7949C109.863-39.7949 111.523-41.4062 111.523-43.5059C111.523-45.6055 109.863-47.2656 107.764-47.2656L61.1328-47.2656C58.9844-47.2656 57.373-45.6055 57.373-43.5059C57.373-41.4062 58.9844-39.7949 61.1328-39.7949ZM25.5371 0.0488281L25.5371-36.2305C25.5371-38.4277 26.9043-39.7949 29.1016-39.7949L36.2305-39.7949L36.2305 0.0488281C36.2305 3.32031 33.9844 5.56641 30.9082 5.56641C27.7832 5.56641 25.5371 3.27148 25.5371 0.0488281ZM63.6719-7.56836L74.8535-7.56836C78.7598-7.56836 81.2012-10.0098 81.2012-13.916L81.2012-24.6582C81.2012-28.5645 78.7598-31.0059 74.8535-31.0059L63.6719-31.0059C59.7168-31.0059 57.2754-28.5645 57.2754-24.6582L57.2754-13.916C57.2754-10.0098 59.7168-7.56836 63.6719-7.56836ZM89.5996-23.5352L107.715-23.5352C109.863-23.5352 111.475-25.1465 111.475-27.1973C111.475-29.3457 109.863-31.0059 107.715-31.0059L89.5996-31.0059C87.4512-31.0059 85.8398-29.3457 85.8398-27.1973C85.8398-25.1465 87.5-23.5352 89.5996-23.5352ZM89.5996-7.56836L107.715-7.56836C109.863-7.56836 111.475-9.17969 111.475-11.2793C111.475-13.3789 109.863-15.0391 107.715-15.0391L89.5996-15.0391C87.5-15.0391 85.8398-13.3789 85.8398-11.2793C85.8398-9.17969 87.4512-7.56836 89.5996-7.56836Z"/>
  </g>
  <g id="Semibold-M" transform="matrix(1 0 0 1 1972.03 1126)">
   <path d="M12.4512 1.80664C12.4512 12.1582 18.5547 18.1152 29.541 18.1152L113.379 18.1152C124.219 18.1152 130.029 12.3535 130.029 1.5625L130.029-72.0215C130.029-82.7637 124.219-88.5254 113.379-88.5254L52.0996-88.5254C41.2109-88.5254 35.4004-82.7637 35.4004-72.0215L35.4004-51.5137L25.4395-51.5137C17.2852-51.5137 12.4512-46.875 12.4512-39.0137ZM45.4102 6.93359C46.1914 5.37109 46.582 3.61328 46.582 1.46484L46.582-70.8008C46.582-75.1465 48.7793-77.3438 53.0762-77.3438L112.354-77.3438C116.65-77.3438 118.848-75.1465 118.848-70.8008L118.848 0.341797C118.848 4.6875 116.65 6.93359 112.354 6.93359ZM58.7402-56.9336L106.738-56.9336C108.74-56.9336 110.254-58.4473 110.254-60.4492C110.254-62.3535 108.74-63.8672 106.738-63.8672L58.7402-63.8672C56.6895-63.8672 55.2246-62.3535 55.2246-60.4492C55.2246-58.4473 56.7383-56.9336 58.7402-56.9336ZM58.7402-40.332L106.738-40.332C108.74-40.332 110.254-41.8457 110.254-43.75C110.254-45.752 108.74-47.2656 106.738-47.2656L58.7402-47.2656C56.7383-47.2656 55.2246-45.752 55.2246-43.75C55.2246-41.8457 56.6895-40.332 58.7402-40.332ZM23.6328 0.878906L23.6328-37.0605C23.6328-39.0625 24.9023-40.332 26.9531-40.332L35.4004-40.332L35.4004 0.878906C35.4004 4.44336 32.9102 6.93359 29.541 6.93359C26.1719 6.93359 23.6328 4.3457 23.6328 0.878906ZM61.377-7.17773L73.0957-7.17773C76.9531-7.17773 79.3457-9.52148 79.3457-13.3789L79.3457-24.4629C79.3457-28.2715 76.9531-30.6641 73.0957-30.6641L61.377-30.6641C57.5195-30.6641 55.127-28.2715 55.127-24.4629L55.127-13.3789C55.127-9.52148 57.5195-7.17773 61.377-7.17773ZM87.8906-23.7305L106.738-23.7305C108.691-23.7305 110.205-25.2441 110.205-27.1484C110.205-29.1504 108.691-30.6641 106.738-30.6641L87.8906-30.6641C85.8398-30.6641 84.375-29.1504 84.375-27.1484C84.375-25.2441 85.8887-23.7305 87.8906-23.7305ZM87.8906-7.17773L106.738-7.17773C108.691-7.17773 110.205-8.69141 110.205-10.5957C110.205-12.5488 108.691-14.1113 106.738-14.1113L87.8906-14.1113C85.8887-14.1113 84.375-12.5488 84.375-10.5957C84.375-8.69141 85.8398-7.17773 87.8906-7.17773Z"/>
  </g>
  <g id="Medium-M" transform="matrix(1 0 0 1 1676.29 1126)">
   <path d="M12.4512 2.05078C12.4512 12.1582 18.0176 17.6758 28.5156 17.6758L111.963 17.6758C122.559 17.6758 128.076 12.207 128.076 1.75781L128.076-72.2168C128.076-82.666 122.559-88.1348 111.963-88.1348L50.8789-88.1348C40.2832-88.1348 34.8145-82.666 34.8145-72.2168L34.8145-50.4883L24.0723-50.4883C16.7969-50.4883 12.4512-46.3867 12.4512-39.4043ZM43.1152 7.91016C44.043 6.15234 44.5312 4.05273 44.5312 1.66016L44.5312-71.3379C44.5312-76.0254 46.9727-78.3691 51.5137-78.3691L111.328-78.3691C115.918-78.3691 118.311-76.0254 118.311-71.3379L118.311 0.878906C118.311 5.56641 115.918 7.91016 111.328 7.91016ZM56.9336-57.6172L106.006-57.6172C107.861-57.6172 109.277-59.082 109.277-60.9375C109.277-62.7441 107.861-64.1602 106.006-64.1602L56.9336-64.1602C54.9805-64.1602 53.5645-62.7441 53.5645-60.9375C53.5645-59.082 55.0293-57.6172 56.9336-57.6172ZM56.9336-40.7715L106.006-40.7715C107.861-40.7715 109.277-42.1875 109.277-43.9941C109.277-45.8496 107.861-47.3145 106.006-47.3145L56.9336-47.3145C55.0293-47.3145 53.5645-45.8496 53.5645-43.9941C53.5645-42.1875 54.9805-40.7715 56.9336-40.7715ZM22.168 1.51367L22.168-37.6953C22.168-39.5996 23.3887-40.7715 25.3418-40.7715L34.8145-40.7715L34.8145 1.51367C34.8145 5.27344 32.0801 7.91016 28.5156 7.91016C24.9512 7.91016 22.168 5.17578 22.168 1.51367ZM59.668-6.88477L71.7773-6.88477C75.5859-6.88477 77.9297-9.17969 77.9297-12.9883L77.9297-24.3164C77.9297-28.0762 75.5859-30.4199 71.7773-30.4199L59.668-30.4199C55.8594-30.4199 53.5156-28.0762 53.5156-24.3164L53.5156-12.9883C53.5156-9.17969 55.8594-6.88477 59.668-6.88477ZM86.5723-23.877L106.006-23.877C107.861-23.877 109.277-25.293 109.277-27.0996C109.277-28.9551 107.861-30.4199 106.006-30.4199L86.5723-30.4199C84.6191-30.4199 83.252-28.9551 83.252-27.0996C83.252-25.293 84.668-23.877 86.5723-23.877ZM86.5723-6.88477L106.006-6.88477C107.861-6.88477 109.277-8.30078 109.277-10.1074C109.277-11.9629 107.861-13.4277 106.006-13.4277L86.5723-13.4277C84.668-13.4277 83.252-11.9629 83.252-10.1074C83.252-8.30078 84.6191-6.88477 86.5723-6.88477Z"/>
  </g>
  <g id="Regular-M" transform="matrix(1 0 0 1 1380.87 1126)">
   <path d="M12.4512 2.34375C12.4512 12.0605 17.2852 17.0898 27.1973 17.0898L110.156 17.0898C120.41 17.0898 125.488 12.0605 125.488 2.00195L125.488-72.4609C125.488-82.5195 120.41-87.5977 110.156-87.5977L49.3164-87.5977C39.1113-87.5977 33.9844-82.5195 33.9844-72.4609L33.9844-49.1699L22.3145-49.1699C16.1133-49.1699 12.4512-45.8008 12.4512-39.9902ZM40.1855 9.22852C41.2598 7.12891 41.8457 4.6875 41.8457 1.85547L41.8457-72.0215C41.8457-77.0996 44.5801-79.7363 49.4629-79.7363L110.059-79.7363C114.893-79.7363 117.627-77.0996 117.627-72.0215L117.627 1.5625C117.627 6.64062 114.893 9.22852 110.059 9.22852ZM54.541-58.4961L105.029-58.4961C106.738-58.4961 108.057-59.8633 108.057-61.5723C108.057-63.2324 106.738-64.502 105.029-64.502L54.541-64.502C52.7832-64.502 51.4648-63.2324 51.4648-61.5723C51.4648-59.8633 52.7832-58.4961 54.541-58.4961ZM54.541-41.3086L105.029-41.3086C106.738-41.3086 108.057-42.627 108.057-44.2871C108.057-45.9961 106.738-47.3145 105.029-47.3145L54.541-47.3145C52.7832-47.3145 51.4648-45.9961 51.4648-44.2871C51.4648-42.627 52.7832-41.3086 54.541-41.3086ZM20.3125 2.34375L20.3125-38.4766C20.3125-40.2832 21.3867-41.3086 23.1934-41.3086L33.9844-41.3086L33.9844 2.34375C33.9844 6.39648 31.0059 9.22852 27.1973 9.22852C23.3398 9.22852 20.3125 6.25 20.3125 2.34375ZM57.4219-6.49414L70.0684-6.49414C73.7793-6.49414 76.0254-8.74023 76.0254-12.4512L76.0254-24.0723C76.0254-27.832 73.7793-30.0781 70.0684-30.0781L57.4219-30.0781C53.6621-30.0781 51.416-27.832 51.416-24.0723L51.416-12.4512C51.416-8.74023 53.6621-6.49414 57.4219-6.49414ZM84.8145-24.0723L105.029-24.0723C106.738-24.0723 108.008-25.3418 108.008-27.002C108.008-28.7598 106.738-30.0781 105.029-30.0781L84.8145-30.0781C83.0566-30.0781 81.7871-28.7598 81.7871-27.002C81.7871-25.3418 83.0566-24.0723 84.8145-24.0723ZM84.8145-6.49414L105.029-6.49414C106.738-6.49414 108.008-7.76367 108.008-9.42383C108.008-11.1328 106.738-12.5 105.029-12.5L84.8145-12.5C83.0566-12.5 81.7871-11.1328 81.7871-9.42383C81.7871-7.76367 83.0566-6.49414 84.8145-6.49414Z"/>
  </g>
  <g id="Light-M" transform="matrix(1 0 0 1 1085.51 1126)">
   <path d="M12.4512 3.66211C12.4512 12.1094 16.7969 16.8457 25.5859 16.8457L108.398 16.8457C117.92 16.8457 122.803 12.0117 122.803 2.58789L122.803-72.9492C122.803-82.4219 117.92-87.207 108.398-87.207L47.0703-87.207C37.5488-87.207 32.7148-82.4219 32.7148-72.9492L32.7148-47.9004L21.2891-47.9004C15.7715-47.9004 12.4512-44.873 12.4512-39.6973ZM36.6211 10.791C38.0371 8.78906 38.7207 6.25 38.7207 3.32031L38.7207-72.6562C38.7207-78.2715 41.6992-81.2012 47.2168-81.2012L108.252-81.2012C113.77-81.2012 116.748-78.2715 116.748-72.6562L116.748 2.24609C116.748 7.86133 113.77 10.791 108.252 10.791ZM52.1973-59.375L103.369-59.375C104.736-59.375 105.811-60.4492 105.811-61.8164C105.811-63.1348 104.736-64.1602 103.369-64.1602L52.1973-64.1602C50.7324-64.1602 49.707-63.1348 49.707-61.8164C49.707-60.4492 50.7324-59.375 52.1973-59.375ZM52.1973-41.8457L103.369-41.8457C104.736-41.8457 105.811-42.9199 105.811-44.2383C105.811-45.6055 104.736-46.6797 103.369-46.6797L52.1973-46.6797C50.7324-46.6797 49.707-45.6055 49.707-44.2383C49.707-42.9199 50.7324-41.8457 52.1973-41.8457ZM18.5059 3.61328L18.5059-38.6719C18.5059-40.6738 19.7754-41.8457 21.875-41.8457L32.7148-41.8457L32.7148 3.61328C32.7148 7.8125 29.6875 10.791 25.5859 10.791C21.5332 10.791 18.5059 7.76367 18.5059 3.61328ZM55.2734-6.5918L67.9688-6.5918C71.5332-6.5918 73.7305-8.78906 73.7305-12.2559L73.7305-23.4375C73.7305-26.9531 71.5332-29.1504 67.9688-29.1504L55.2734-29.1504C51.7578-29.1504 49.5605-26.9531 49.5605-23.4375L49.5605-12.2559C49.5605-8.78906 51.7578-6.5918 55.2734-6.5918ZM82.666-24.3164L103.32-24.3164C104.736-24.3164 105.762-25.3906 105.762-26.709C105.762-28.0762 104.736-29.1504 103.32-29.1504L82.666-29.1504C81.2012-29.1504 80.1758-28.0762 80.1758-26.709C80.1758-25.3906 81.2012-24.3164 82.666-24.3164ZM82.666-6.5918L103.32-6.5918C104.736-6.5918 105.762-7.61719 105.762-8.93555C105.762-10.3027 104.736-11.377 103.32-11.377L82.666-11.377C81.2012-11.377 80.1758-10.3027 80.1758-8.93555C80.1758-7.61719 81.2012-6.5918 82.666-6.5918Z"/>
  </g>
  <g id="Thin-M" transform="matrix(1 0 0 1 790.602 1126)">
   <path d="M12.4512 5.37109C12.4512 12.207 16.1621 16.4551 23.5352 16.4551L106.055 16.4551C114.697 16.4551 119.189 11.9629 119.189 3.32031L119.189-73.6328C119.189-82.2754 114.697-86.7676 106.055-86.7676L44.1406-86.7676C35.498-86.7676 30.957-82.2754 30.957-73.6328L30.957-46.1914L19.9219-46.1914C15.2344-46.1914 12.4512-43.6523 12.4512-39.2578ZM31.9824 12.8418C33.7402 10.9375 34.5703 8.34961 34.5703 5.27344L34.5703-73.4375C34.5703-79.834 37.9395-83.1543 44.2383-83.1543L105.908-83.1543C112.256-83.1543 115.576-79.834 115.576-73.4375L115.576 3.125C115.576 9.52148 112.256 12.8418 105.908 12.8418ZM49.0723-60.498L101.172-60.498C102.148-60.498 102.832-61.1816 102.832-62.1094C102.832-62.9883 102.148-63.7207 101.172-63.7207L49.0723-63.7207C48.0957-63.7207 47.3633-62.9883 47.3633-62.1094C47.3633-61.1816 48.0957-60.498 49.0723-60.498ZM49.0723-42.5781L101.172-42.5781C102.148-42.5781 102.832-43.3105 102.832-44.1895C102.832-45.1172 102.148-45.8008 101.172-45.8008L49.0723-45.8008C48.0957-45.8008 47.3633-45.1172 47.3633-44.1895C47.3633-43.3105 48.0957-42.5781 49.0723-42.5781ZM16.0645 5.27344L16.0645-38.8672C16.0645-41.1621 17.5781-42.5781 20.0684-42.5781L30.957-42.5781L30.957 5.27344C30.957 9.76562 27.9297 12.8418 23.5352 12.8418C19.1406 12.8418 16.0645 9.7168 16.0645 5.27344ZM52.4902-6.73828L65.2832-6.73828C68.5059-6.73828 70.6055-8.83789 70.6055-12.0117L70.6055-22.6074C70.6055-25.8301 68.5059-27.9297 65.2832-27.9297L52.4902-27.9297C49.2188-27.9297 47.1191-25.8301 47.1191-22.6074L47.1191-12.0117C47.1191-8.83789 49.2188-6.73828 52.4902-6.73828ZM79.7363-24.707L101.123-24.707C102.051-24.707 102.783-25.3906 102.783-26.3184C102.783-27.1973 102.051-27.9297 101.123-27.9297L79.7363-27.9297C78.8086-27.9297 78.0762-27.1973 78.0762-26.3184C78.0762-25.3906 78.8086-24.707 79.7363-24.707ZM79.7363-6.73828L101.123-6.73828C102.051-6.73828 102.783-7.42188 102.783-8.30078C102.783-9.22852 102.051-9.96094 101.123-9.96094L79.7363-9.96094C78.8086-9.96094 78.0762-9.22852 78.0762-8.30078C78.0762-7.42188 78.8086-6.73828 79.7363-6.73828Z"/>
  </g>
  <g id="Ultralight-M" transform="matrix(1 0 0 1 494.794 1126)">
   <path d="M12.4512 6.25C12.4512 12.2559 15.8691 16.2598 22.4609 16.2598L104.834 16.2598C113.037 16.2598 117.383 11.9141 117.383 3.71094L117.383-73.9746C117.383-82.1777 113.037-86.5234 104.834-86.5234L42.627-86.5234C34.4238-86.5234 30.0781-82.1777 30.0781-73.9746L30.0781-45.3613L19.2383-45.3613C14.9902-45.3613 12.4512-43.0176 12.4512-39.0625ZM29.5898 13.8672C31.543 12.0605 32.4707 9.47266 32.4707 6.25L32.4707-73.877C32.4707-80.6152 35.9863-84.1309 42.7246-84.1309L104.736-84.1309C111.475-84.1309 114.99-80.6152 114.99-73.877L114.99 3.61328C114.99 10.3516 111.475 13.8672 104.736 13.8672ZM47.4609-61.0352L100.049-61.0352C100.781-61.0352 101.318-61.5723 101.318-62.2559C101.318-62.9395 100.781-63.4766 100.049-63.4766L47.4609-63.4766C46.7285-63.4766 46.1914-62.9395 46.1914-62.2559C46.1914-61.5723 46.7285-61.0352 47.4609-61.0352ZM47.4609-42.9688L100.049-42.9688C100.781-42.9688 101.318-43.5059 101.318-44.1895C101.318-44.8242 100.781-45.3613 100.049-45.3613L47.4609-45.3613C46.7285-45.3613 46.1914-44.8242 46.1914-44.1895C46.1914-43.5059 46.7285-42.9688 47.4609-42.9688ZM14.8438 6.15234L14.8438-38.9648C14.8438-41.4551 16.4551-42.9688 19.1895-42.9688L30.0781-42.9688L30.0781 6.15234C30.0781 10.7422 27.002 13.8672 22.4609 13.8672C17.9199 13.8672 14.8438 10.7422 14.8438 6.15234ZM51.0254-6.78711L63.8672-6.78711C66.9922-6.78711 69.043-8.83789 69.043-11.8652L69.043-22.2168C69.043-25.2441 66.9922-27.2949 63.8672-27.2949L51.0254-27.2949C47.9492-27.2949 45.8984-25.2441 45.8984-22.2168L45.8984-11.8652C45.8984-8.83789 47.9492-6.78711 51.0254-6.78711ZM78.2715-24.8535L100-24.8535C100.732-24.8535 101.27-25.3906 101.27-26.0742C101.27-26.7578 100.732-27.2949 100-27.2949L78.2715-27.2949C77.5391-27.2949 77.002-26.7578 77.002-26.0742C77.002-25.3906 77.5391-24.8535 78.2715-24.8535ZM78.2715-6.78711L100-6.78711C100.732-6.78711 101.27-7.32422 101.27-8.00781C101.27-8.64258 100.732-9.22852 100-9.22852L78.2715-9.22852C77.5391-9.22852 77.002-8.64258 77.002-8.00781C77.002-7.32422 77.5391-6.78711 78.2715-6.78711Z"/>
  </g>
  <g id="Black-S" transform="matrix(1 0 0 1 2873.88 696)">
   <path d="M9.76562-7.08008C9.76562 2.05078 16.6504 8.1543 27.002 8.1543L94.043 8.1543C103.613 8.1543 109.277 2.49023 109.277-7.08008L109.277-63.3301C109.277-72.9004 103.613-78.5645 94.043-78.5645L45.3125-78.5645C35.7422-78.5645 30.0781-72.9004 30.0781-63.3301L30.0781-51.8066L25-51.8066C15.4297-51.8066 9.76562-46.1426 9.76562-36.5723ZM44.0918-6.00586C44.1895-6.34766 44.2383-6.5918 44.2383-7.08008L44.2383-61.084C44.2383-63.3301 45.1172-64.4043 47.5586-64.4043L91.7969-64.4043C94.2383-64.4043 95.1172-63.3301 95.1172-61.084L95.1172-9.32617C95.1172-7.08008 94.2383-6.00586 91.7969-6.00586ZM52.8809-49.6094L86.4746-49.6094C88.4277-49.6094 89.9902-51.1719 89.9902-53.125C89.9902-55.0781 88.4766-56.5918 86.4746-56.5918L52.8809-56.5918C50.8789-56.5918 49.3652-55.0781 49.3652-53.125C49.3652-51.1719 50.9277-49.6094 52.8809-49.6094ZM52.8809-37.6465L86.4746-37.6465C88.4766-37.6465 89.9902-39.1602 89.9902-41.1133C89.9902-43.0664 88.4277-44.6289 86.4746-44.6289L52.8809-44.6289C50.9277-44.6289 49.3652-43.0664 49.3652-41.1133C49.3652-39.1602 50.8789-37.6465 52.8809-37.6465ZM23.9258-9.32617L23.9258-34.3262C23.9258-36.3281 25.2441-37.6465 27.2461-37.6465L30.0781-37.6465L30.0781-9.32617C30.0781-7.32422 28.8574-6.00586 27.002-6.00586C25.1465-6.00586 23.9258-7.32422 23.9258-9.32617ZM54.5898-14.3555L62.2559-14.3555C65.4785-14.3555 67.5293-16.4062 67.5293-19.6289L67.5293-27.3926C67.5293-30.5664 65.4785-32.6172 62.2559-32.6172L54.5898-32.6172C51.3672-32.6172 49.3164-30.5664 49.3164-27.3926L49.3164-19.6289C49.3164-16.4062 51.3672-14.3555 54.5898-14.3555ZM73.8281-25.6836L86.4746-25.6836C88.4277-25.6836 89.9414-27.1973 89.9414-29.1016C89.9414-31.1035 88.4277-32.6172 86.4746-32.6172L73.8281-32.6172C71.8262-32.6172 70.3125-31.1035 70.3125-29.1016C70.3125-27.1973 71.875-25.6836 73.8281-25.6836ZM73.8281-14.3555L86.4746-14.3555C88.4277-14.3555 89.9414-15.8691 89.9414-17.8223C89.9414-19.7754 88.4277-21.3379 86.4746-21.3379L73.8281-21.3379C71.875-21.3379 70.3125-19.7754 70.3125-17.8223C70.3125-15.8691 71.8262-14.3555 73.8281-14.3555Z"/>
  </g>
  <g id="Heavy-S" transform="matrix(1 0 0 1 2578.31 696)">
   <path d="M9.76562-6.93359C9.76562 2.00195 15.9668 7.61719 25.8301 7.61719L92.4316 7.61719C101.709 7.61719 106.982 2.34375 106.982-6.88477L106.982-63.5254C106.982-72.7539 101.709-78.0762 92.4316-78.0762L43.9941-78.0762C34.7168-78.0762 29.4434-72.7539 29.4434-63.5254L29.4434-50.6348L23.3398-50.6348C14.7949-50.6348 9.76562-45.6055 9.76562-37.1582ZM41.5039-4.83398C41.748-5.51758 41.8945-6.15234 41.8945-7.03125L41.8945-61.7188C41.8945-64.3066 43.0176-65.5762 45.752-65.5762L90.6738-65.5762C93.3594-65.5762 94.5312-64.3066 94.5312-61.7188L94.5312-8.69141C94.5312-6.10352 93.3594-4.83398 90.6738-4.83398ZM50.7324-50.4395L85.6934-50.4395C87.5488-50.4395 88.9648-51.9043 88.9648-53.7598C88.9648-55.5664 87.5488-56.9824 85.6934-56.9824L50.7324-56.9824C48.877-56.9824 47.4121-55.5664 47.4121-53.7598C47.4121-51.9043 48.877-50.4395 50.7324-50.4395ZM50.7324-38.1348L85.6934-38.1348C87.5488-38.1348 88.9648-39.5508 88.9648-41.4062C88.9648-43.2617 87.5488-44.7266 85.6934-44.7266L50.7324-44.7266C48.877-44.7266 47.4121-43.2617 47.4121-41.4062C47.4121-39.5508 48.877-38.1348 50.7324-38.1348ZM22.2656-8.64258L22.2656-35.1074C22.2656-36.9629 23.4375-38.1348 25.2441-38.1348L29.4434-38.1348L29.4434-8.64258C29.4434-6.39648 27.9297-4.83398 25.8301-4.83398C23.7305-4.83398 22.2656-6.39648 22.2656-8.64258ZM52.5879-13.9648L60.7422-13.9648C63.916-13.9648 65.918-15.9668 65.918-19.1406L65.918-27.2461C65.918-30.4199 63.916-32.373 60.7422-32.373L52.5879-32.373C49.3652-32.373 47.4121-30.4199 47.4121-27.2461L47.4121-19.1406C47.4121-15.9668 49.3652-13.9648 52.5879-13.9648ZM72.3633-25.8301L85.6934-25.8301C87.5488-25.8301 88.9648-27.2461 88.9648-29.0527C88.9648-30.957 87.5488-32.373 85.6934-32.373L72.3633-32.373C70.459-32.373 69.043-30.957 69.043-29.0527C69.043-27.2461 70.459-25.8301 72.3633-25.8301ZM72.3633-13.9648L85.6934-13.9648C87.5488-13.9648 88.9648-15.3809 88.9648-17.2363C88.9648-19.043 87.5488-20.5566 85.6934-20.5566L72.3633-20.5566C70.459-20.5566 69.043-19.043 69.043-17.2363C69.043-15.3809 70.459-13.9648 72.3633-13.9648Z"/>
  </g>
  <g id="Bold-S" transform="matrix(1 0 0 1 2282.87 696)">
   <path d="M9.76562-6.73828C9.76562 1.95312 15.2344 7.03125 24.5605 7.03125L90.625 7.03125C99.5605 7.03125 104.443 2.14844 104.443-6.73828L104.443-63.7207C104.443-72.6074 99.5605-77.4902 90.625-77.4902L42.5293-77.4902C33.5938-77.4902 28.6621-72.6074 28.6621-63.7207L28.6621-49.2676L21.4844-49.2676C14.1113-49.2676 9.76562-45.0684 9.76562-37.8418ZM38.623-3.56445C39.0625-4.58984 39.3066-5.66406 39.3066-6.98242L39.3066-62.4023C39.3066-65.3809 40.7227-66.8945 43.7012-66.8945L89.4531-66.8945C92.4316-66.8945 93.8477-65.3809 93.8477-62.4023L93.8477-8.00781C93.8477-5.07812 92.4316-3.56445 89.4531-3.56445ZM48.3887-51.3184L84.7656-51.3184C86.5234-51.3184 87.8418-52.6855 87.8418-54.4434C87.8418-56.1523 86.5234-57.4707 84.7656-57.4707L48.3887-57.4707C46.582-57.4707 45.2637-56.1523 45.2637-54.4434C45.2637-52.6855 46.6309-51.3184 48.3887-51.3184ZM48.3887-38.6719L84.7656-38.6719C86.5234-38.6719 87.8418-39.9902 87.8418-41.6992C87.8418-43.457 86.5234-44.8242 84.7656-44.8242L48.3887-44.8242C46.6309-44.8242 45.2637-43.457 45.2637-41.6992C45.2637-39.9902 46.582-38.6719 48.3887-38.6719ZM20.3613-7.86133L20.3613-36.0352C20.3613-37.6465 21.3867-38.6719 23.0469-38.6719L28.6621-38.6719L28.6621-7.86133C28.6621-5.32227 26.9043-3.56445 24.5605-3.56445C22.168-3.56445 20.3613-5.41992 20.3613-7.86133ZM50.293-13.5254L59.082-13.5254C62.207-13.5254 64.1113-15.4297 64.1113-18.5547L64.1113-27.0996C64.1113-30.2246 62.207-32.1289 59.082-32.1289L50.293-32.1289C47.168-32.1289 45.2637-30.2246 45.2637-27.0996L45.2637-18.5547C45.2637-15.4297 47.168-13.5254 50.293-13.5254ZM70.7031-26.0254L84.7656-26.0254C86.5234-26.0254 87.8418-27.3438 87.8418-29.0527C87.8418-30.7617 86.5234-32.1289 84.7656-32.1289L70.7031-32.1289C68.8965-32.1289 67.5781-30.7617 67.5781-29.0527C67.5781-27.3438 68.9453-26.0254 70.7031-26.0254ZM70.7031-13.5254L84.7656-13.5254C86.5234-13.5254 87.8418-14.8438 87.8418-16.5527C87.8418-18.2617 86.5234-19.6289 84.7656-19.6289L70.7031-19.6289C68.9453-19.6289 67.5781-18.2617 67.5781-16.5527C67.5781-14.8438 68.8965-13.5254 70.7031-13.5254Z"/>
  </g>
  <g id="Semibold-S" transform="matrix(1 0 0 1 1987.04 696)">
   <path d="M9.76562-6.64062C9.76562 1.9043 14.6973 6.64062 23.6328 6.64062L89.3555 6.64062C98.0957 6.64062 102.686 2.05078 102.686-6.5918L102.686-63.8672C102.686-72.5098 98.0957-77.0996 89.3555-77.0996L41.5039-77.0996C32.7637-77.0996 28.1738-72.5098 28.1738-63.8672L28.1738-48.3887L20.2148-48.3887C13.6719-48.3887 9.76562-44.6289 9.76562-38.2812ZM36.6699-2.68555C37.207-3.95508 37.5-5.32227 37.5-6.93359L37.5-62.8906C37.5-66.1621 39.1113-67.7734 42.2852-67.7734L88.5742-67.7734C91.748-67.7734 93.4082-66.1621 93.4082-62.8906L93.4082-7.56836C93.4082-4.29688 91.748-2.68555 88.5742-2.68555ZM46.7285-51.9531L84.1797-51.9531C85.8398-51.9531 87.1094-53.2715 87.1094-54.9316C87.1094-56.543 85.8398-57.7637 84.1797-57.7637L46.7285-57.7637C45.0195-57.7637 43.7988-56.543 43.7988-54.9316C43.7988-53.2715 45.0684-51.9531 46.7285-51.9531ZM46.7285-39.0625L84.1797-39.0625C85.8398-39.0625 87.1094-40.332 87.1094-41.9434C87.1094-43.6035 85.8398-44.873 84.1797-44.873L46.7285-44.873C45.0684-44.873 43.7988-43.6035 43.7988-41.9434C43.7988-40.332 45.0195-39.0625 46.7285-39.0625ZM19.0918-7.32422L19.0918-36.6211C19.0918-38.1348 20.0195-39.0625 21.5332-39.0625L28.1738-39.0625L28.1738-7.32422C28.1738-4.58984 26.1719-2.68555 23.6328-2.68555C21.0449-2.68555 19.0918-4.6875 19.0918-7.32422ZM48.7305-13.1836L57.9102-13.1836C60.9863-13.1836 62.8906-15.0879 62.8906-18.1641L62.8906-27.002C62.8906-30.0781 60.9863-31.9336 57.9102-31.9336L48.7305-31.9336C45.6543-31.9336 43.75-30.0781 43.75-27.002L43.75-18.1641C43.75-15.0879 45.6543-13.1836 48.7305-13.1836ZM69.5312-26.123L84.1797-26.123C85.8398-26.123 87.0605-27.3926 87.0605-29.0039C87.0605-30.6641 85.8398-31.9336 84.1797-31.9336L69.5312-31.9336C67.8223-31.9336 66.6016-30.6641 66.6016-29.0039C66.6016-27.3926 67.8711-26.123 69.5312-26.123ZM69.5312-13.1836L84.1797-13.1836C85.8398-13.1836 87.0605-14.4531 87.0605-16.0645C87.0605-17.7246 85.8398-19.043 84.1797-19.043L69.5312-19.043C67.8711-19.043 66.6016-17.7246 66.6016-16.0645C66.6016-14.4531 67.8223-13.1836 69.5312-13.1836Z"/>
  </g>
  <g id="Medium-S" transform="matrix(1 0 0 1 1690.99 696)">
   <path d="M9.76562-6.54297C9.76562 1.85547 14.3066 6.29883 22.9492 6.29883L88.4277 6.29883C96.9727 6.29883 101.367 1.95312 101.367-6.49414L101.367-64.0137C101.367-72.4609 96.9727-76.8066 88.4277-76.8066L40.7227-76.8066C32.1777-76.8066 27.7832-72.4609 27.7832-64.0137L27.7832-47.6562L19.2871-47.6562C13.2812-47.6562 9.76562-44.3359 9.76562-38.6719ZM35.1562-2.00195C35.791-3.4668 36.1328-5.07812 36.1328-6.93359L36.1328-63.2812C36.1328-66.6992 37.8906-68.457 41.2109-68.457L87.9395-68.457C91.2598-68.457 93.0664-66.6992 93.0664-63.2812L93.0664-7.17773C93.0664-3.75977 91.2598-2.00195 87.9395-2.00195ZM45.5078-52.4414L83.6914-52.4414C85.3027-52.4414 86.5234-53.7109 86.5234-55.2734C86.5234-56.8359 85.3027-58.0078 83.6914-58.0078L45.5078-58.0078C43.8477-58.0078 42.6758-56.8359 42.6758-55.2734C42.6758-53.7109 43.8477-52.4414 45.5078-52.4414ZM45.5078-39.3555L83.6914-39.3555C85.3027-39.3555 86.5234-40.5762 86.5234-42.0898C86.5234-43.7012 85.3027-44.9707 83.6914-44.9707L45.5078-44.9707C43.8477-44.9707 42.6758-43.7012 42.6758-42.0898C42.6758-40.5762 43.8477-39.3555 45.5078-39.3555ZM18.0664-6.93359L18.0664-37.1094C18.0664-38.4766 18.9453-39.3555 20.3613-39.3555L27.7832-39.3555L27.7832-6.93359C27.7832-4.05273 25.6348-2.00195 22.9492-2.00195C20.2148-2.00195 18.0664-4.15039 18.0664-6.93359ZM47.5586-12.9883L57.0312-12.9883C60.1074-12.9883 61.9629-14.7949 61.9629-17.8711L61.9629-26.9043C61.9629-29.9805 60.1074-31.8359 57.0312-31.8359L47.5586-31.8359C44.4824-31.8359 42.627-29.9805 42.627-26.9043L42.627-17.8711C42.627-14.7949 44.4824-12.9883 47.5586-12.9883ZM68.6523-26.2207L83.6914-26.2207C85.3027-26.2207 86.4746-27.4414 86.4746-29.0039C86.4746-30.5664 85.3027-31.8359 83.6914-31.8359L68.6523-31.8359C67.041-31.8359 65.8203-30.5664 65.8203-29.0039C65.8203-27.4414 67.041-26.2207 68.6523-26.2207ZM68.6523-12.9883L83.6914-12.9883C85.3027-12.9883 86.4746-14.1602 86.4746-15.7227C86.4746-17.2852 85.3027-18.5547 83.6914-18.5547L68.6523-18.5547C67.041-18.5547 65.8203-17.2852 65.8203-15.7227C65.8203-14.1602 67.041-12.9883 68.6523-12.9883Z"/>
  </g>
  <g id="Regular-S" transform="matrix(1 0 0 1 1395.16 696)">
   <path d="M9.76562-6.44531C9.76562 1.80664 13.7695 5.9082 22.0703 5.9082L87.1582 5.9082C95.5078 5.9082 99.6094 1.85547 99.6094-6.34766L99.6094-64.1602C99.6094-72.3633 95.5078-76.416 87.1582-76.416L39.7461-76.416C31.3965-76.416 27.2949-72.3633 27.2949-64.1602L27.2949-46.7773L18.0176-46.7773C12.8418-46.7773 9.76562-43.9453 9.76562-39.1113ZM33.2031-1.12305C33.9355-2.83203 34.3262-4.73633 34.3262-6.88477L34.3262-63.7695C34.3262-67.4805 36.3281-69.3848 39.8438-69.3848L87.0605-69.3848C90.5762-69.3848 92.5781-67.4805 92.5781-63.7695L92.5781-6.73828C92.5781-3.02734 90.5762-1.12305 87.0605-1.12305ZM43.8965-53.0762L83.1055-53.0762C84.6191-53.0762 85.7422-54.248 85.7422-55.7617C85.7422-57.2266 84.6191-58.3496 83.1055-58.3496L43.8965-58.3496C42.334-58.3496 41.1621-57.2266 41.1621-55.7617C41.1621-54.248 42.334-53.0762 43.8965-53.0762ZM43.8965-39.7461L83.1055-39.7461C84.6191-39.7461 85.7422-40.8691 85.7422-42.334C85.7422-43.8477 84.6191-45.0195 83.1055-45.0195L43.8965-45.0195C42.334-45.0195 41.1621-43.8477 41.1621-42.334C41.1621-40.8691 42.334-39.7461 43.8965-39.7461ZM16.7969-6.39648L16.7969-37.6953C16.7969-38.9648 17.5781-39.7461 18.8477-39.7461L27.2949-39.7461L27.2949-6.39648C27.2949-3.32031 24.9512-1.12305 22.0703-1.12305C19.1406-1.12305 16.7969-3.4668 16.7969-6.39648ZM45.9961-12.6465L55.8594-12.6465C58.9355-12.6465 60.7422-14.4531 60.7422-17.4805L60.7422-26.8066C60.7422-29.834 58.9355-31.6406 55.8594-31.6406L45.9961-31.6406C42.9688-31.6406 41.1621-29.834 41.1621-26.8066L41.1621-17.4805C41.1621-14.4531 42.9688-12.6465 45.9961-12.6465ZM67.5293-26.3672L83.1055-26.3672C84.6191-26.3672 85.7422-27.4902 85.7422-28.9551C85.7422-30.4688 84.6191-31.6406 83.1055-31.6406L67.5293-31.6406C65.9668-31.6406 64.8438-30.4688 64.8438-28.9551C64.8438-27.4902 65.9668-26.3672 67.5293-26.3672ZM67.5293-12.6465L83.1055-12.6465C84.6191-12.6465 85.7422-13.8184 85.7422-15.2344C85.7422-16.748 84.6191-17.9688 83.1055-17.9688L67.5293-17.9688C65.9668-17.9688 64.8438-16.748 64.8438-15.2344C64.8438-13.8184 65.9668-12.6465 67.5293-12.6465Z"/>
  </g>
  <g id="Light-S" transform="matrix(1 0 0 1 1099.64 696)">
   <path d="M9.76562-5.27344C9.76562 1.85547 13.3789 5.66406 20.6543 5.66406L85.5957 5.66406C93.3594 5.66406 97.2168 1.80664 97.2168-5.85938L97.2168-64.5996C97.2168-72.2656 93.3594-76.123 85.5957-76.123L37.7441-76.123C30.0293-76.123 26.123-72.2656 26.123-64.5996L26.123-45.6543L17.0898-45.6543C12.5-45.6543 9.76562-43.1152 9.76562-38.8184ZM30.0781 0.244141C31.0547-1.36719 31.543-3.32031 31.543-5.61523L31.543-64.3066C31.543-68.5059 33.7891-70.6543 37.8418-70.6543L85.498-70.6543C89.5996-70.6543 91.7969-68.5059 91.7969-64.3066L91.7969-6.15234C91.7969-1.95312 89.5996 0.244141 85.498 0.244141ZM41.7969-53.8086L81.6406-53.8086C82.8613-53.8086 83.7402-54.7363 83.7402-55.957C83.7402-57.1289 82.8613-58.0566 81.6406-58.0566L41.7969-58.0566C40.5273-58.0566 39.6484-57.1289 39.6484-55.957C39.6484-54.7363 40.5273-53.8086 41.7969-53.8086ZM41.7969-40.2344L81.6406-40.2344C82.8613-40.2344 83.7402-41.1133 83.7402-42.2852C83.7402-43.5059 82.8613-44.4336 81.6406-44.4336L41.7969-44.4336C40.5273-44.4336 39.6484-43.5059 39.6484-42.2852C39.6484-41.1133 40.5273-40.2344 41.7969-40.2344ZM15.1855-5.27344L15.1855-37.8418C15.1855-39.3066 16.1133-40.2344 17.627-40.2344L26.123-40.2344L26.123-5.27344C26.123-2.05078 23.7793 0.244141 20.6543 0.244141C17.5781 0.244141 15.1855-2.14844 15.1855-5.27344ZM44.1406-12.7441L54.0527-12.7441C56.9336-12.7441 58.6426-14.502 58.6426-17.334L58.6426-26.2695C58.6426-29.1016 56.9336-30.8105 54.0527-30.8105L44.1406-30.8105C41.2598-30.8105 39.5508-29.1016 39.5508-26.2695L39.5508-17.334C39.5508-14.502 41.2598-12.7441 44.1406-12.7441ZM65.5762-26.6113L81.5918-26.6113C82.8125-26.6113 83.7402-27.4902 83.7402-28.6621C83.7402-29.8828 82.8125-30.8105 81.5918-30.8105L65.5762-30.8105C64.3555-30.8105 63.4277-29.8828 63.4277-28.6621C63.4277-27.4902 64.3555-26.6113 65.5762-26.6113ZM65.5762-12.7441L81.5918-12.7441C82.8125-12.7441 83.7402-13.6719 83.7402-14.8438C83.7402-16.0156 82.8125-16.9922 81.5918-16.9922L65.5762-16.9922C64.3555-16.9922 63.4277-16.0156 63.4277-14.8438C63.4277-13.6719 64.3555-12.7441 65.5762-12.7441Z"/>
  </g>
  <g id="Thin-S" transform="matrix(1 0 0 1 804.494 696)">
   <path d="M9.76562-3.75977C9.76562 1.9043 12.793 5.32227 18.8477 5.32227L83.5449 5.32227C90.4785 5.32227 94.0918 1.75781 94.0918-5.17578L94.0918-65.1855C94.0918-72.1191 90.4785-75.6836 83.5449-75.6836L35.1562-75.6836C28.2227-75.6836 24.6094-72.1191 24.6094-65.1855L24.6094-44.1406L15.918-44.1406C12.0605-44.1406 9.76562-42.041 9.76562-38.4766ZM25.9277 2.05078C27.2461 0.537109 27.8809-1.46484 27.8809-3.85742L27.8809-65.0391C27.8809-69.873 30.4199-72.4121 35.2539-72.4121L83.4473-72.4121C88.2324-72.4121 90.7715-69.873 90.7715-65.0391L90.7715-5.32227C90.7715-0.488281 88.2324 2.05078 83.4473 2.05078ZM39.0625-54.7852L79.6875-54.7852C80.5176-54.7852 81.1523-55.4199 81.1523-56.2012C81.1523-57.0312 80.5176-57.6172 79.6875-57.6172L39.0625-57.6172C38.1836-57.6172 37.5977-57.0312 37.5977-56.2012C37.5977-55.4199 38.1836-54.7852 39.0625-54.7852ZM39.0625-40.8691L79.6875-40.8691C80.5176-40.8691 81.1523-41.4551 81.1523-42.2852C81.1523-43.0664 80.5176-43.7012 79.6875-43.7012L39.0625-43.7012C38.1836-43.7012 37.5977-43.0664 37.5977-42.2852C37.5977-41.4551 38.1836-40.8691 39.0625-40.8691ZM13.0859-3.80859L13.0859-38.0371C13.0859-39.7949 14.209-40.8691 16.0645-40.8691L24.6094-40.8691L24.6094-3.80859C24.6094-0.341797 22.2168 2.05078 18.8477 2.05078C15.4297 2.05078 13.0859-0.390625 13.0859-3.80859ZM41.6504-12.8418L51.6602-12.8418C54.248-12.8418 55.9082-14.502 55.9082-17.0898L55.9082-25.5371C55.9082-28.0762 54.248-29.7363 51.6602-29.7363L41.6504-29.7363C39.0625-29.7363 37.4023-28.0762 37.4023-25.5371L37.4023-17.0898C37.4023-14.502 39.0625-12.8418 41.6504-12.8418ZM63.0371-26.9043L79.6387-26.9043C80.4688-26.9043 81.1035-27.5391 81.1035-28.3203C81.1035-29.1016 80.4688-29.7363 79.6387-29.7363L63.0371-29.7363C62.207-29.7363 61.5723-29.1016 61.5723-28.3203C61.5723-27.5391 62.207-26.9043 63.0371-26.9043ZM63.0371-12.8418L79.6387-12.8418C80.4688-12.8418 81.1035-13.4766 81.1035-14.2578C81.1035-15.0879 80.4688-15.7227 79.6387-15.7227L63.0371-15.7227C62.207-15.7227 61.5723-15.0879 61.5723-14.2578C61.5723-13.4766 62.207-12.8418 63.0371-12.8418Z"/>
  </g>
  <g id="Ultralight-S" transform="matrix(1 0 0 1 508.588 696)">
   <path d="M9.76562-2.97852C9.76562 1.95312 12.5 5.17578 17.8711 5.17578L82.4707 5.17578C89.0137 5.17578 92.4805 1.70898 92.4805-4.83398L92.4805-65.5273C92.4805-72.0215 89.0137-75.4883 82.4707-75.4883L33.7891-75.4883C27.2461-75.4883 23.8281-72.0215 23.8281-65.5273L23.8281-43.4082L15.2832-43.4082C11.8164-43.4082 9.76562-41.5039 9.76562-38.2812ZM23.8281 2.97852C25.293 1.51367 26.0254-0.488281 26.0254-2.97852L26.0254-65.3809C26.0254-70.6055 28.7109-73.291 33.8867-73.291L82.373-73.291C87.5488-73.291 90.2344-70.6055 90.2344-65.3809L90.2344-4.93164C90.2344 0.244141 87.5488 2.97852 82.373 2.97852ZM37.6465-55.3223L78.7109-55.3223C79.3457-55.3223 79.7852-55.7617 79.7852-56.3477C79.7852-56.9336 79.3457-57.4219 78.7109-57.4219L37.6465-57.4219C37.0117-57.4219 36.5234-56.9336 36.5234-56.3477C36.5234-55.7617 37.0117-55.3223 37.6465-55.3223ZM37.6465-41.1621L78.7109-41.1621C79.3457-41.1621 79.7852-41.6504 79.7852-42.2363C79.7852-42.8223 79.3457-43.3105 78.7109-43.3105L37.6465-43.3105C37.0117-43.3105 36.5234-42.8223 36.5234-42.2363C36.5234-41.6504 37.0117-41.1621 37.6465-41.1621ZM11.9629-3.07617L11.9629-38.1348C11.9629-40.0391 13.2324-41.1621 15.2832-41.1621L23.8281-41.1621L23.8281-3.07617C23.8281 0.537109 21.4355 2.97852 17.8711 2.97852C14.3555 2.97852 11.9629 0.537109 11.9629-3.07617ZM40.3809-12.9395L50.4395-12.9395C52.8809-12.9395 54.541-14.5508 54.541-16.9922L54.541-25.1465C54.541-27.5391 52.8809-29.1992 50.4395-29.1992L40.3809-29.1992C37.8906-29.1992 36.2793-27.5391 36.2793-25.1465L36.2793-16.9922C36.2793-14.5508 37.8906-12.9395 40.3809-12.9395ZM61.7188-27.0508L78.6621-27.0508C79.2969-27.0508 79.7363-27.5391 79.7363-28.125C79.7363-28.7109 79.2969-29.1992 78.6621-29.1992L61.7188-29.1992C61.084-29.1992 60.5957-28.7109 60.5957-28.125C60.5957-27.5391 61.084-27.0508 61.7188-27.0508ZM61.7188-12.9395L78.6621-12.9395C79.2969-12.9395 79.7363-13.3789 79.7363-13.9648C79.7363-14.5508 79.2969-15.0391 78.6621-15.0391L61.7188-15.0391C61.084-15.0391 60.5957-14.5508 60.5957-13.9648C60.5957-13.3789 61.084-12.9395 61.7188-12.9395Z"/>
  </g>
 </g>
</svg>
